<svg xmlns="http://www.w3.org/2000/svg" viewBox="0 0 936.91 884.11"><defs><style>.cls-1{fill:#fff;}</style></defs><g id="Camada_2" data-name="Camada 2"><path class="cls-1" d="M195.83,586.08c7.54-9.22,12.57-45.27,12.57-180.27v-239h8.39c21,14.26,46.12,34.38,73,34.38,40.25,0,52.82-42.76,131.64-42.76,76.3,0,142.54,46.95,142.54,137.51V586.08c0,38.57,5.87,190.34,73.79,190.34,60.37,0,85.53-151.77-13.42-151.77,18.45-26.83,36.9-40.24,68.76-40.24,52,0,90.56,36.05,90.56,88.88,0,63.72-79.66,114.87-161,114.87-118.23,0-167.7-95.59-167.7-202.08V273.33c0-75.46-31-101.46-63.73-101.46-36.05,0-73.78,31-73.78,60.37V405.81c0,135,5,171.05,12.58,180.27-18.45-8.38-42.77-11.73-65.41-11.73-26.83,0-52.82,5-67.08,11.73Z"/></g></svg>