<svg width="40" height="40" viewBox="0 0 40 40" fill="none" xmlns="http://www.w3.org/2000/svg">
<path d="M14.7333 18.0583H11.4583V14.96H14.43C17.56 14.96 17.1733 18.0583 14.7333 18.0583ZM24.3817 19.8217H28.755C28.5633 17.01 24.8217 16.805 24.3817 19.8217ZM14.5483 20.4817H11.4583V23.7267H14.4983C17.4683 23.725 17.2867 20.4817 14.5483 20.4817ZM40 20C40 31.045 31.045 40 20 40C8.955 40 0 31.045 0 20C0 8.955 8.955 0 20 0C31.045 0 40 8.955 40 20ZM17.7383 18.7783C20.5183 17.3567 20.4167 12.1433 15.0933 12.065H8.33333V26.615H14.6183C21.215 26.615 21.1033 20.0033 17.7383 18.7783ZM23.3333 13.5017H30V12.0433H23.3333V13.5017ZM31.5717 19.6567C30.6633 13.815 21.4833 13.4717 21.4833 21.11C21.4833 28.6533 30.1167 27.4733 31.3983 23.71H28.3183C27.2433 24.9567 24.1383 24.595 24.3117 21.7367H31.6617C31.6767 20.8117 31.6467 20.1483 31.5717 19.6567Z" fill="white"/>
</svg>
