<svg width="1166" height="471" viewBox="0 0 1166 471" fill="none" xmlns="http://www.w3.org/2000/svg">
<g filter="url(#filter0_d_440_69)">
<rect width="300" height="80" rx="4" fill="white" shape-rendering="crispEdges"/>
<path d="M56.104 35.768C56.104 37.0693 55.8053 38.264 55.208 39.352C54.6107 40.4187 53.6933 41.2827 52.456 41.944C51.2187 42.6053 49.6827 42.936 47.848 42.936H44.456V51H38.984V28.536H47.848C49.64 28.536 51.1547 28.8453 52.392 29.464C53.6293 30.0827 54.5573 30.936 55.176 32.024C55.7947 33.112 56.104 34.36 56.104 35.768ZM47.432 38.584C48.4773 38.584 49.256 38.3387 49.768 37.848C50.28 37.3573 50.536 36.664 50.536 35.768C50.536 34.872 50.28 34.1787 49.768 33.688C49.256 33.1973 48.4773 32.952 47.432 32.952H44.456V38.584H47.432ZM64.4248 36.12C65.0648 35.1387 65.8648 34.3707 66.8248 33.816C67.7848 33.24 68.8514 32.952 70.0248 32.952V38.744H68.5208C67.1554 38.744 66.1314 39.0427 65.4488 39.64C64.7661 40.216 64.4248 41.24 64.4248 42.712V51H58.9528V33.144H64.4248V36.12ZM89.4722 41.784C89.4722 42.296 89.4403 42.8293 89.3763 43.384H76.9923C77.0776 44.4933 77.4296 45.3467 78.0483 45.944C78.6883 46.52 79.4669 46.808 80.3843 46.808C81.7496 46.808 82.6989 46.232 83.2323 45.08H89.0563C88.7576 46.2533 88.2136 47.3093 87.4243 48.248C86.6563 49.1867 85.6856 49.9227 84.5123 50.456C83.3389 50.9893 82.0269 51.256 80.5763 51.256C78.8269 51.256 77.2696 50.8827 75.9043 50.136C74.5389 49.3893 73.4723 48.3227 72.7043 46.936C71.9363 45.5493 71.5523 43.928 71.5523 42.072C71.5523 40.216 71.9256 38.5947 72.6723 37.208C73.4403 35.8213 74.5069 34.7547 75.8723 34.008C77.2376 33.2613 78.8056 32.888 80.5763 32.888C82.3043 32.888 83.8403 33.2507 85.1843 33.976C86.5283 34.7013 87.5736 35.736 88.3203 37.08C89.0883 38.424 89.4722 39.992 89.4722 41.784ZM83.8723 40.344C83.8723 39.4053 83.5523 38.6587 82.9123 38.104C82.2723 37.5493 81.4723 37.272 80.5123 37.272C79.5949 37.272 78.8163 37.5387 78.1763 38.072C77.5576 38.6053 77.1736 39.3627 77.0243 40.344H83.8723ZM84.2563 28.568L76.5443 31.8V28.024L84.2563 24.312V28.568ZM106.119 37.496V42.04H92.039V37.496H106.119ZM116.394 35.672C116.906 34.84 117.642 34.168 118.602 33.656C119.562 33.144 120.66 32.888 121.898 32.888C123.37 32.888 124.703 33.2613 125.898 34.008C127.092 34.7547 128.031 35.8213 128.714 37.208C129.418 38.5947 129.77 40.2053 129.77 42.04C129.77 43.8747 129.418 45.496 128.714 46.904C128.031 48.2907 127.092 49.368 125.898 50.136C124.703 50.8827 123.37 51.256 121.898 51.256C120.639 51.256 119.54 51.0107 118.602 50.52C117.663 50.008 116.927 49.336 116.394 48.504V51H110.922V27.32H116.394V35.672ZM124.202 42.04C124.202 40.6747 123.818 39.608 123.05 38.84C122.303 38.0507 121.375 37.656 120.266 37.656C119.178 37.656 118.25 38.0507 117.482 38.84C116.735 39.6293 116.362 40.7067 116.362 42.072C116.362 43.4373 116.735 44.5147 117.482 45.304C118.25 46.0933 119.178 46.488 120.266 46.488C121.354 46.488 122.282 46.0933 123.05 45.304C123.818 44.4933 124.202 43.4053 124.202 42.04ZM138.112 36.12C138.752 35.1387 139.552 34.3707 140.512 33.816C141.472 33.24 142.539 32.952 143.712 32.952V38.744H142.208C140.843 38.744 139.819 39.0427 139.136 39.64C138.454 40.216 138.112 41.24 138.112 42.712V51H132.64V33.144H138.112V36.12ZM149.08 31.288C148.12 31.288 147.33 31.0107 146.712 30.456C146.114 29.88 145.816 29.176 145.816 28.344C145.816 27.4907 146.114 26.7867 146.712 26.232C147.33 25.656 148.12 25.368 149.08 25.368C150.018 25.368 150.786 25.656 151.384 26.232C152.002 26.7867 152.312 27.4907 152.312 28.344C152.312 29.176 152.002 29.88 151.384 30.456C150.786 31.0107 150.018 31.288 149.08 31.288ZM151.8 33.144V51H146.328V33.144H151.8ZM172.597 41.784C172.597 42.296 172.565 42.8293 172.501 43.384H160.117C160.203 44.4933 160.555 45.3467 161.173 45.944C161.813 46.52 162.592 46.808 163.509 46.808C164.875 46.808 165.824 46.232 166.357 45.08H172.181C171.883 46.2533 171.339 47.3093 170.549 48.248C169.781 49.1867 168.811 49.9227 167.637 50.456C166.464 50.9893 165.152 51.256 163.701 51.256C161.952 51.256 160.395 50.8827 159.029 50.136C157.664 49.3893 156.597 48.3227 155.829 46.936C155.061 45.5493 154.677 43.928 154.677 42.072C154.677 40.216 155.051 38.5947 155.797 37.208C156.565 35.8213 157.632 34.7547 158.997 34.008C160.363 33.2613 161.931 32.888 163.701 32.888C165.429 32.888 166.965 33.2507 168.309 33.976C169.653 34.7013 170.699 35.736 171.445 37.08C172.213 38.424 172.597 39.992 172.597 41.784ZM166.997 40.344C166.997 39.4053 166.677 38.6587 166.037 38.104C165.397 37.5493 164.597 37.272 163.637 37.272C162.72 37.272 161.941 37.5387 161.301 38.072C160.683 38.6053 160.299 39.3627 160.149 40.344H166.997ZM184.444 37.688H181.5V51H176.028V37.688H174.044V33.144H176.028V32.632C176.028 30.4347 176.657 28.7707 177.916 27.64C179.175 26.488 181.02 25.912 183.452 25.912C183.857 25.912 184.156 25.9227 184.348 25.944V30.584C183.303 30.52 182.567 30.6693 182.14 31.032C181.713 31.3947 181.5 32.0453 181.5 32.984V33.144H184.444V37.688ZM189.767 31.288C188.807 31.288 188.018 31.0107 187.399 30.456C186.802 29.88 186.503 29.176 186.503 28.344C186.503 27.4907 186.802 26.7867 187.399 26.232C188.018 25.656 188.807 25.368 189.767 25.368C190.706 25.368 191.474 25.656 192.071 26.232C192.69 26.7867 192.999 27.4907 192.999 28.344C192.999 29.176 192.69 29.88 192.071 30.456C191.474 31.0107 190.706 31.288 189.767 31.288ZM192.487 33.144V51H187.015V33.144H192.487ZM207.333 32.952C209.423 32.952 211.087 33.6347 212.325 35C213.583 36.344 214.213 38.2 214.213 40.568V51H208.773V41.304C208.773 40.1093 208.463 39.1813 207.845 38.52C207.226 37.8587 206.394 37.528 205.349 37.528C204.303 37.528 203.471 37.8587 202.853 38.52C202.234 39.1813 201.925 40.1093 201.925 41.304V51H196.453V33.144H201.925V35.512C202.479 34.7227 203.226 34.104 204.165 33.656C205.103 33.1867 206.159 32.952 207.333 32.952ZM224.799 32.888C226.058 32.888 227.157 33.144 228.095 33.656C229.055 34.168 229.791 34.84 230.303 35.672V33.144H235.775V50.968C235.775 52.6107 235.445 54.0933 234.783 55.416C234.143 56.76 233.151 57.8267 231.807 58.616C230.485 59.4053 228.831 59.8 226.847 59.8C224.202 59.8 222.058 59.1707 220.415 57.912C218.773 56.6747 217.834 54.9893 217.599 52.856H223.007C223.178 53.5387 223.583 54.072 224.223 54.456C224.863 54.8613 225.653 55.064 226.591 55.064C227.722 55.064 228.618 54.7333 229.279 54.072C229.962 53.432 230.303 52.3973 230.303 50.968V48.44C229.77 49.272 229.034 49.9547 228.095 50.488C227.157 51 226.058 51.256 224.799 51.256C223.327 51.256 221.994 50.8827 220.799 50.136C219.605 49.368 218.655 48.2907 217.951 46.904C217.269 45.496 216.927 43.8747 216.927 42.04C216.927 40.2053 217.269 38.5947 217.951 37.208C218.655 35.8213 219.605 34.7547 220.799 34.008C221.994 33.2613 223.327 32.888 224.799 32.888ZM230.303 42.072C230.303 40.7067 229.919 39.6293 229.151 38.84C228.405 38.0507 227.487 37.656 226.399 37.656C225.311 37.656 224.383 38.0507 223.615 38.84C222.869 39.608 222.495 40.6747 222.495 42.04C222.495 43.4053 222.869 44.4933 223.615 45.304C224.383 46.0933 225.311 46.488 226.399 46.488C227.487 46.488 228.405 46.0933 229.151 45.304C229.919 44.5147 230.303 43.4373 230.303 42.072Z" fill="#5450AD"/>
</g>
<g filter="url(#filter1_d_440_69)">
<rect x="862" y="180" width="300" height="80" rx="4" fill="white" shape-rendering="crispEdges"/>
<path d="M942.584 219.48C943.885 219.757 944.931 220.408 945.72 221.432C946.509 222.435 946.904 223.587 946.904 224.888C946.904 226.765 946.243 228.259 944.92 229.368C943.619 230.456 941.795 231 939.448 231H928.984V208.536H939.096C941.379 208.536 943.16 209.059 944.44 210.104C945.741 211.149 946.392 212.568 946.392 214.36C946.392 215.683 946.04 216.781 945.336 217.656C944.653 218.531 943.736 219.139 942.584 219.48ZM934.456 217.624H938.04C938.936 217.624 939.619 217.432 940.088 217.048C940.579 216.643 940.824 216.056 940.824 215.288C940.824 214.52 940.579 213.933 940.088 213.528C939.619 213.123 938.936 212.92 938.04 212.92H934.456V217.624ZM938.488 226.584C939.405 226.584 940.109 226.381 940.6 225.976C941.112 225.549 941.368 224.941 941.368 224.152C941.368 223.363 941.101 222.744 940.568 222.296C940.056 221.848 939.341 221.624 938.424 221.624H934.456V226.584H938.488ZM955.55 216.12C956.19 215.139 956.99 214.371 957.95 213.816C958.91 213.24 959.976 212.952 961.15 212.952V218.744H959.646C958.28 218.744 957.256 219.043 956.574 219.64C955.891 220.216 955.55 221.24 955.55 222.712V231H950.078V213.144H955.55V216.12ZM966.517 211.288C965.557 211.288 964.768 211.011 964.149 210.456C963.552 209.88 963.253 209.176 963.253 208.344C963.253 207.491 963.552 206.787 964.149 206.232C964.768 205.656 965.557 205.368 966.517 205.368C967.456 205.368 968.224 205.656 968.821 206.232C969.44 206.787 969.749 207.491 969.749 208.344C969.749 209.176 969.44 209.88 968.821 210.456C968.224 211.011 967.456 211.288 966.517 211.288ZM969.237 213.144V231H963.765V213.144H969.237ZM990.035 221.784C990.035 222.296 990.003 222.829 989.939 223.384H977.555C977.64 224.493 977.992 225.347 978.611 225.944C979.251 226.52 980.029 226.808 980.947 226.808C982.312 226.808 983.261 226.232 983.795 225.08H989.619C989.32 226.253 988.776 227.309 987.987 228.248C987.219 229.187 986.248 229.923 985.075 230.456C983.901 230.989 982.589 231.256 981.139 231.256C979.389 231.256 977.832 230.883 976.467 230.136C975.101 229.389 974.035 228.323 973.267 226.936C972.499 225.549 972.115 223.928 972.115 222.072C972.115 220.216 972.488 218.595 973.235 217.208C974.003 215.821 975.069 214.755 976.435 214.008C977.8 213.261 979.368 212.888 981.139 212.888C982.867 212.888 984.403 213.251 985.747 213.976C987.091 214.701 988.136 215.736 988.883 217.08C989.651 218.424 990.035 219.992 990.035 221.784ZM984.435 220.344C984.435 219.405 984.115 218.659 983.475 218.104C982.835 217.549 982.035 217.272 981.075 217.272C980.157 217.272 979.379 217.539 978.739 218.072C978.12 218.605 977.736 219.363 977.587 220.344H984.435ZM1001.88 217.688H998.938V231H993.466V217.688H991.482V213.144H993.466V212.632C993.466 210.435 994.095 208.771 995.354 207.64C996.612 206.488 998.458 205.912 1000.89 205.912C1001.29 205.912 1001.59 205.923 1001.79 205.944V210.584C1000.74 210.52 1000 210.669 999.578 211.032C999.151 211.395 998.938 212.045 998.938 212.984V213.144H1001.88V217.688ZM1007.2 211.288C1006.24 211.288 1005.46 211.011 1004.84 210.456C1004.24 209.88 1003.94 209.176 1003.94 208.344C1003.94 207.491 1004.24 206.787 1004.84 206.232C1005.46 205.656 1006.24 205.368 1007.2 205.368C1008.14 205.368 1008.91 205.656 1009.51 206.232C1010.13 206.787 1010.44 207.491 1010.44 208.344C1010.44 209.176 1010.13 209.88 1009.51 210.456C1008.91 211.011 1008.14 211.288 1007.2 211.288ZM1009.92 213.144V231H1004.45V213.144H1009.92ZM1024.77 212.952C1026.86 212.952 1028.52 213.635 1029.76 215C1031.02 216.344 1031.65 218.2 1031.65 220.568V231H1026.21V221.304C1026.21 220.109 1025.9 219.181 1025.28 218.52C1024.66 217.859 1023.83 217.528 1022.79 217.528C1021.74 217.528 1020.91 217.859 1020.29 218.52C1019.67 219.181 1019.36 220.109 1019.36 221.304V231H1013.89V213.144H1019.36V215.512C1019.92 214.723 1020.66 214.104 1021.6 213.656C1022.54 213.187 1023.6 212.952 1024.77 212.952ZM1042.24 212.888C1043.5 212.888 1044.59 213.144 1045.53 213.656C1046.49 214.168 1047.23 214.84 1047.74 215.672V213.144H1053.21V230.968C1053.21 232.611 1052.88 234.093 1052.22 235.416C1051.58 236.76 1050.59 237.827 1049.24 238.616C1047.92 239.405 1046.27 239.8 1044.28 239.8C1041.64 239.8 1039.5 239.171 1037.85 237.912C1036.21 236.675 1035.27 234.989 1035.04 232.856H1040.44C1040.62 233.539 1041.02 234.072 1041.66 234.456C1042.3 234.861 1043.09 235.064 1044.03 235.064C1045.16 235.064 1046.06 234.733 1046.72 234.072C1047.4 233.432 1047.74 232.397 1047.74 230.968V228.44C1047.21 229.272 1046.47 229.955 1045.53 230.488C1044.59 231 1043.5 231.256 1042.24 231.256C1040.76 231.256 1039.43 230.883 1038.24 230.136C1037.04 229.368 1036.09 228.291 1035.39 226.904C1034.71 225.496 1034.36 223.875 1034.36 222.04C1034.36 220.205 1034.71 218.595 1035.39 217.208C1036.09 215.821 1037.04 214.755 1038.24 214.008C1039.43 213.261 1040.76 212.888 1042.24 212.888ZM1047.74 222.072C1047.74 220.707 1047.36 219.629 1046.59 218.84C1045.84 218.051 1044.92 217.656 1043.84 217.656C1042.75 217.656 1041.82 218.051 1041.05 218.84C1040.31 219.608 1039.93 220.675 1039.93 222.04C1039.93 223.405 1040.31 224.493 1041.05 225.304C1041.82 226.093 1042.75 226.488 1043.84 226.488C1044.92 226.488 1045.84 226.093 1046.59 225.304C1047.36 224.515 1047.74 223.437 1047.74 222.072Z" fill="#5450AD"/>
</g>
<g filter="url(#filter2_d_440_69)">
<rect x="431" y="180" width="300" height="80" rx="4" fill="white" shape-rendering="crispEdges"/>
<path d="M515.104 215.768C515.104 217.069 514.805 218.264 514.208 219.352C513.611 220.419 512.693 221.283 511.456 221.944C510.219 222.605 508.683 222.936 506.848 222.936H503.456V231H497.984V208.536H506.848C508.64 208.536 510.155 208.845 511.392 209.464C512.629 210.083 513.557 210.936 514.176 212.024C514.795 213.112 515.104 214.36 515.104 215.768ZM506.432 218.584C507.477 218.584 508.256 218.339 508.768 217.848C509.28 217.357 509.536 216.664 509.536 215.768C509.536 214.872 509.28 214.179 508.768 213.688C508.256 213.197 507.477 212.952 506.432 212.952H503.456V218.584H506.432ZM534.785 221.784C534.785 222.296 534.753 222.829 534.689 223.384H522.305C522.39 224.493 522.742 225.347 523.361 225.944C524.001 226.52 524.779 226.808 525.697 226.808C527.062 226.808 528.011 226.232 528.545 225.08H534.369C534.07 226.253 533.526 227.309 532.737 228.248C531.969 229.187 530.998 229.923 529.825 230.456C528.651 230.989 527.339 231.256 525.889 231.256C524.139 231.256 522.582 230.883 521.217 230.136C519.851 229.389 518.785 228.323 518.017 226.936C517.249 225.549 516.865 223.928 516.865 222.072C516.865 220.216 517.238 218.595 517.985 217.208C518.753 215.821 519.819 214.755 521.185 214.008C522.55 213.261 524.118 212.888 525.889 212.888C527.617 212.888 529.153 213.251 530.497 213.976C531.841 214.701 532.886 215.736 533.633 217.08C534.401 218.424 534.785 219.992 534.785 221.784ZM529.185 220.344C529.185 219.405 528.865 218.659 528.225 218.104C527.585 217.549 526.785 217.272 525.825 217.272C524.907 217.272 524.129 217.539 523.489 218.072C522.87 218.605 522.486 219.363 522.337 220.344H529.185ZM544.936 231.256C543.378 231.256 541.992 230.989 540.776 230.456C539.56 229.923 538.6 229.197 537.896 228.28C537.192 227.341 536.797 226.296 536.712 225.144H542.12C542.184 225.763 542.472 226.264 542.984 226.648C543.496 227.032 544.125 227.224 544.872 227.224C545.554 227.224 546.077 227.096 546.44 226.84C546.824 226.563 547.016 226.211 547.016 225.784C547.016 225.272 546.749 224.899 546.216 224.664C545.682 224.408 544.818 224.131 543.624 223.832C542.344 223.533 541.277 223.224 540.424 222.904C539.57 222.563 538.834 222.04 538.216 221.336C537.597 220.611 537.288 219.64 537.288 218.424C537.288 217.4 537.565 216.472 538.12 215.64C538.696 214.787 539.528 214.115 540.616 213.624C541.725 213.133 543.037 212.888 544.552 212.888C546.792 212.888 548.552 213.443 549.832 214.552C551.133 215.661 551.88 217.133 552.072 218.968H547.016C546.93 218.349 546.653 217.859 546.184 217.496C545.736 217.133 545.138 216.952 544.392 216.952C543.752 216.952 543.261 217.08 542.92 217.336C542.578 217.571 542.408 217.901 542.408 218.328C542.408 218.84 542.674 219.224 543.208 219.48C543.762 219.736 544.616 219.992 545.768 220.248C547.09 220.589 548.168 220.931 549 221.272C549.832 221.592 550.557 222.125 551.176 222.872C551.816 223.597 552.146 224.579 552.168 225.816C552.168 226.861 551.869 227.8 551.272 228.632C550.696 229.443 549.853 230.083 548.744 230.552C547.656 231.021 546.386 231.256 544.936 231.256ZM554.427 222.104C554.427 220.333 554.79 218.755 555.515 217.368C556.262 215.981 557.254 214.904 558.491 214.136C559.75 213.347 561.115 212.952 562.587 212.952C563.718 212.952 564.731 213.155 565.627 213.56C566.523 213.944 567.249 214.488 567.803 215.192V213.144H573.275V239.512H567.803V228.76C567.185 229.507 566.427 230.104 565.531 230.552C564.657 231 563.654 231.224 562.523 231.224C561.073 231.224 559.729 230.84 558.491 230.072C557.254 229.304 556.262 228.227 555.515 226.84C554.79 225.453 554.427 223.875 554.427 222.104ZM567.803 222.072C567.803 221.112 567.611 220.312 567.227 219.672C566.865 219.011 566.385 218.52 565.787 218.2C565.19 217.859 564.561 217.688 563.899 217.688C563.259 217.688 562.641 217.859 562.043 218.2C561.446 218.52 560.955 219.011 560.571 219.672C560.187 220.333 559.995 221.144 559.995 222.104C559.995 223.064 560.187 223.875 560.571 224.536C560.955 225.176 561.446 225.667 562.043 226.008C562.641 226.328 563.259 226.488 563.899 226.488C564.539 226.488 565.158 226.328 565.755 226.008C566.374 225.667 566.865 225.165 567.227 224.504C567.611 223.843 567.803 223.032 567.803 222.072ZM594.866 213.144V231H589.394V228.568C588.839 229.357 588.082 229.997 587.122 230.488C586.183 230.957 585.138 231.192 583.986 231.192C582.621 231.192 581.415 230.893 580.37 230.296C579.325 229.677 578.514 228.792 577.938 227.64C577.362 226.488 577.074 225.133 577.074 223.576V213.144H582.514V222.84C582.514 224.035 582.823 224.963 583.442 225.624C584.061 226.285 584.893 226.616 585.938 226.616C587.005 226.616 587.847 226.285 588.466 225.624C589.085 224.963 589.394 224.035 589.394 222.84V213.144H594.866ZM601.549 211.288C600.589 211.288 599.799 211.011 599.181 210.456C598.583 209.88 598.285 209.176 598.285 208.344C598.285 207.491 598.583 206.787 599.181 206.232C599.799 205.656 600.589 205.368 601.549 205.368C602.487 205.368 603.255 205.656 603.853 206.232C604.471 206.787 604.781 207.491 604.781 208.344C604.781 209.176 604.471 209.88 603.853 210.456C603.255 211.011 602.487 211.288 601.549 211.288ZM604.269 213.144V231H598.797V213.144H604.269ZM615.498 231.256C613.941 231.256 612.554 230.989 611.338 230.456C610.122 229.923 609.162 229.197 608.458 228.28C607.754 227.341 607.359 226.296 607.274 225.144H612.682C612.746 225.763 613.034 226.264 613.546 226.648C614.058 227.032 614.687 227.224 615.434 227.224C616.117 227.224 616.639 227.096 617.002 226.84C617.386 226.563 617.578 226.211 617.578 225.784C617.578 225.272 617.311 224.899 616.778 224.664C616.245 224.408 615.381 224.131 614.186 223.832C612.906 223.533 611.839 223.224 610.986 222.904C610.133 222.563 609.397 222.04 608.778 221.336C608.159 220.611 607.85 219.64 607.85 218.424C607.85 217.4 608.127 216.472 608.682 215.64C609.258 214.787 610.09 214.115 611.178 213.624C612.287 213.133 613.599 212.888 615.114 212.888C617.354 212.888 619.114 213.443 620.394 214.552C621.695 215.661 622.442 217.133 622.634 218.968H617.578C617.493 218.349 617.215 217.859 616.746 217.496C616.298 217.133 615.701 216.952 614.954 216.952C614.314 216.952 613.823 217.08 613.482 217.336C613.141 217.571 612.97 217.901 612.97 218.328C612.97 218.84 613.237 219.224 613.77 219.48C614.325 219.736 615.178 219.992 616.33 220.248C617.653 220.589 618.73 220.931 619.562 221.272C620.394 221.592 621.119 222.125 621.738 222.872C622.378 223.597 622.709 224.579 622.73 225.816C622.73 226.861 622.431 227.8 621.834 228.632C621.258 229.443 620.415 230.083 619.306 230.552C618.218 231.021 616.949 231.256 615.498 231.256ZM624.99 222.04C624.99 220.205 625.331 218.595 626.014 217.208C626.718 215.821 627.667 214.755 628.862 214.008C630.056 213.261 631.39 212.888 632.862 212.888C634.12 212.888 635.219 213.144 636.158 213.656C637.118 214.168 637.854 214.84 638.366 215.672V213.144H643.838V231H638.366V228.472C637.832 229.304 637.086 229.976 636.126 230.488C635.187 231 634.088 231.256 632.83 231.256C631.379 231.256 630.056 230.883 628.862 230.136C627.667 229.368 626.718 228.291 626.014 226.904C625.331 225.496 624.99 223.875 624.99 222.04ZM638.366 222.072C638.366 220.707 637.982 219.629 637.214 218.84C636.467 218.051 635.55 217.656 634.462 217.656C633.374 217.656 632.446 218.051 631.678 218.84C630.931 219.608 630.558 220.675 630.558 222.04C630.558 223.405 630.931 224.493 631.678 225.304C632.446 226.093 633.374 226.488 634.462 226.488C635.55 226.488 636.467 226.093 637.214 225.304C637.982 224.515 638.366 223.437 638.366 222.072Z" fill="#5450AD"/>
</g>
<g filter="url(#filter3_d_440_69)">
<rect y="180" width="300" height="80" rx="4" fill="white" shape-rendering="crispEdges"/>
<path d="M24.4 208.536C26.768 208.536 28.8373 209.005 30.608 209.944C32.3787 210.883 33.744 212.205 34.704 213.912C35.6853 215.597 36.176 217.549 36.176 219.768C36.176 221.965 35.6853 223.917 34.704 225.624C33.744 227.331 32.368 228.653 30.576 229.592C28.8053 230.531 26.7467 231 24.4 231H15.984V208.536H24.4ZM24.048 226.264C26.1173 226.264 27.728 225.699 28.88 224.568C30.032 223.437 30.608 221.837 30.608 219.768C30.608 217.699 30.032 216.088 28.88 214.936C27.728 213.784 26.1173 213.208 24.048 213.208H21.456V226.264H24.048ZM56.066 221.784C56.066 222.296 56.034 222.829 55.97 223.384H43.586C43.6713 224.493 44.0233 225.347 44.642 225.944C45.282 226.52 46.0607 226.808 46.978 226.808C48.3433 226.808 49.2927 226.232 49.826 225.08H55.65C55.3513 226.253 54.8073 227.309 54.018 228.248C53.25 229.187 52.2793 229.923 51.106 230.456C49.9327 230.989 48.6207 231.256 47.17 231.256C45.4207 231.256 43.8633 230.883 42.498 230.136C41.1327 229.389 40.066 228.323 39.298 226.936C38.53 225.549 38.146 223.928 38.146 222.072C38.146 220.216 38.5193 218.595 39.266 217.208C40.034 215.821 41.1007 214.755 42.466 214.008C43.8313 213.261 45.3993 212.888 47.17 212.888C48.898 212.888 50.434 213.251 51.778 213.976C53.122 214.701 54.1673 215.736 54.914 217.08C55.682 218.424 56.066 219.992 56.066 221.784ZM50.466 220.344C50.466 219.405 50.146 218.659 49.506 218.104C48.866 217.549 48.066 217.272 47.106 217.272C46.1887 217.272 45.41 217.539 44.77 218.072C44.1513 218.605 43.7673 219.363 43.618 220.344H50.466ZM66.2168 231.256C64.6594 231.256 63.2728 230.989 62.0568 230.456C60.8408 229.923 59.8808 229.197 59.1768 228.28C58.4728 227.341 58.0781 226.296 57.9928 225.144H63.4008C63.4648 225.763 63.7528 226.264 64.2648 226.648C64.7768 227.032 65.4061 227.224 66.1528 227.224C66.8354 227.224 67.3581 227.096 67.7208 226.84C68.1048 226.563 68.2968 226.211 68.2968 225.784C68.2968 225.272 68.0301 224.899 67.4968 224.664C66.9634 224.408 66.0994 224.131 64.9048 223.832C63.6248 223.533 62.5581 223.224 61.7048 222.904C60.8514 222.563 60.1154 222.04 59.4968 221.336C58.8781 220.611 58.5688 219.64 58.5688 218.424C58.5688 217.4 58.8461 216.472 59.4008 215.64C59.9768 214.787 60.8088 214.115 61.8968 213.624C63.0061 213.133 64.3181 212.888 65.8328 212.888C68.0728 212.888 69.8328 213.443 71.1128 214.552C72.4141 215.661 73.1608 217.133 73.3528 218.968H68.2968C68.2114 218.349 67.9341 217.859 67.4648 217.496C67.0168 217.133 66.4194 216.952 65.6728 216.952C65.0328 216.952 64.5421 217.08 64.2008 217.336C63.8594 217.571 63.6888 217.901 63.6888 218.328C63.6888 218.84 63.9554 219.224 64.4888 219.48C65.0434 219.736 65.8968 219.992 67.0488 220.248C68.3714 220.589 69.4488 220.931 70.2808 221.272C71.1128 221.592 71.8381 222.125 72.4568 222.872C73.0968 223.597 73.4274 224.579 73.4488 225.816C73.4488 226.861 73.1501 227.8 72.5528 228.632C71.9768 229.443 71.1341 230.083 70.0248 230.552C68.9368 231.021 67.6674 231.256 66.2168 231.256ZM93.6285 221.784C93.6285 222.296 93.5965 222.829 93.5325 223.384H81.1485C81.2338 224.493 81.5858 225.347 82.2045 225.944C82.8445 226.52 83.6232 226.808 84.5405 226.808C85.9058 226.808 86.8552 226.232 87.3885 225.08H93.2125C92.9138 226.253 92.3698 227.309 91.5805 228.248C90.8125 229.187 89.8418 229.923 88.6685 230.456C87.4952 230.989 86.1832 231.256 84.7325 231.256C82.9832 231.256 81.4258 230.883 80.0605 230.136C78.6952 229.389 77.6285 228.323 76.8605 226.936C76.0925 225.549 75.7085 223.928 75.7085 222.072C75.7085 220.216 76.0818 218.595 76.8285 217.208C77.5965 215.821 78.6632 214.755 80.0285 214.008C81.3938 213.261 82.9618 212.888 84.7325 212.888C86.4605 212.888 87.9965 213.251 89.3405 213.976C90.6845 214.701 91.7298 215.736 92.4765 217.08C93.2445 218.424 93.6285 219.992 93.6285 221.784ZM88.0285 220.344C88.0285 219.405 87.7085 218.659 87.0685 218.104C86.4285 217.549 85.6285 217.272 84.6685 217.272C83.7512 217.272 82.9725 217.539 82.3325 218.072C81.7138 218.605 81.3298 219.363 81.1805 220.344H88.0285ZM107.395 212.952C109.486 212.952 111.15 213.635 112.387 215C113.646 216.344 114.275 218.2 114.275 220.568V231H108.835V221.304C108.835 220.109 108.526 219.181 107.907 218.52C107.289 217.859 106.457 217.528 105.411 217.528C104.366 217.528 103.534 217.859 102.915 218.52C102.297 219.181 101.987 220.109 101.987 221.304V231H96.5153V213.144H101.987V215.512C102.542 214.723 103.289 214.104 104.227 213.656C105.166 213.187 106.222 212.952 107.395 212.952ZM126.11 225.88L129.982 213.144H135.806L129.47 231H122.718L116.382 213.144H122.238L126.11 225.88ZM146.237 231.256C144.488 231.256 142.909 230.883 141.501 230.136C140.114 229.389 139.016 228.323 138.205 226.936C137.416 225.549 137.021 223.928 137.021 222.072C137.021 220.237 137.426 218.627 138.237 217.24C139.048 215.832 140.157 214.755 141.565 214.008C142.973 213.261 144.552 212.888 146.301 212.888C148.05 212.888 149.629 213.261 151.037 214.008C152.445 214.755 153.554 215.832 154.365 217.24C155.176 218.627 155.581 220.237 155.581 222.072C155.581 223.907 155.165 225.528 154.333 226.936C153.522 228.323 152.402 229.389 150.973 230.136C149.565 230.883 147.986 231.256 146.237 231.256ZM146.237 226.52C147.282 226.52 148.168 226.136 148.893 225.368C149.64 224.6 150.013 223.501 150.013 222.072C150.013 220.643 149.65 219.544 148.925 218.776C148.221 218.008 147.346 217.624 146.301 217.624C145.234 217.624 144.349 218.008 143.645 218.776C142.941 219.523 142.589 220.621 142.589 222.072C142.589 223.501 142.93 224.6 143.613 225.368C144.317 226.136 145.192 226.52 146.237 226.52ZM163.956 207.32V231H158.484V207.32H163.956ZM175.954 225.88L179.826 213.144H185.65L179.314 231H172.562L166.226 213.144H172.082L175.954 225.88ZM190.705 211.288C189.745 211.288 188.955 211.011 188.337 210.456C187.739 209.88 187.441 209.176 187.441 208.344C187.441 207.491 187.739 206.787 188.337 206.232C188.955 205.656 189.745 205.368 190.705 205.368C191.643 205.368 192.411 205.656 193.009 206.232C193.627 206.787 193.937 207.491 193.937 208.344C193.937 209.176 193.627 209.88 193.009 210.456C192.411 211.011 191.643 211.288 190.705 211.288ZM193.425 213.144V231H187.953V213.144H193.425ZM220.174 212.952C222.393 212.952 224.153 213.624 225.454 214.968C226.777 216.312 227.438 218.179 227.438 220.568V231H221.998V221.304C221.998 220.152 221.689 219.267 221.07 218.648C220.473 218.008 219.641 217.688 218.574 217.688C217.508 217.688 216.665 218.008 216.046 218.648C215.449 219.267 215.15 220.152 215.15 221.304V231H209.71V221.304C209.71 220.152 209.401 219.267 208.782 218.648C208.185 218.008 207.353 217.688 206.286 217.688C205.22 217.688 204.377 218.008 203.758 218.648C203.161 219.267 202.862 220.152 202.862 221.304V231H197.39V213.144H202.862V215.384C203.417 214.637 204.142 214.051 205.038 213.624C205.934 213.176 206.948 212.952 208.078 212.952C209.422 212.952 210.617 213.24 211.662 213.816C212.729 214.392 213.561 215.213 214.158 216.28C214.777 215.299 215.62 214.499 216.686 213.88C217.753 213.261 218.916 212.952 220.174 212.952ZM248.097 221.784C248.097 222.296 248.065 222.829 248.001 223.384H235.617C235.703 224.493 236.055 225.347 236.673 225.944C237.313 226.52 238.092 226.808 239.009 226.808C240.375 226.808 241.324 226.232 241.857 225.08H247.681C247.383 226.253 246.839 227.309 246.049 228.248C245.281 229.187 244.311 229.923 243.137 230.456C241.964 230.989 240.652 231.256 239.201 231.256C237.452 231.256 235.895 230.883 234.529 230.136C233.164 229.389 232.097 228.323 231.329 226.936C230.561 225.549 230.177 223.928 230.177 222.072C230.177 220.216 230.551 218.595 231.297 217.208C232.065 215.821 233.132 214.755 234.497 214.008C235.863 213.261 237.431 212.888 239.201 212.888C240.929 212.888 242.465 213.251 243.809 213.976C245.153 214.701 246.199 215.736 246.945 217.08C247.713 218.424 248.097 219.992 248.097 221.784ZM242.497 220.344C242.497 219.405 242.177 218.659 241.537 218.104C240.897 217.549 240.097 217.272 239.137 217.272C238.22 217.272 237.441 217.539 236.801 218.072C236.183 218.605 235.799 219.363 235.649 220.344H242.497ZM261.864 212.952C263.955 212.952 265.619 213.635 266.856 215C268.115 216.344 268.744 218.2 268.744 220.568V231H263.304V221.304C263.304 220.109 262.995 219.181 262.376 218.52C261.757 217.859 260.925 217.528 259.88 217.528C258.835 217.528 258.003 217.859 257.384 218.52C256.765 219.181 256.456 220.109 256.456 221.304V231H250.984V213.144H256.456V215.512C257.011 214.723 257.757 214.104 258.696 213.656C259.635 213.187 260.691 212.952 261.864 212.952ZM282.499 226.36V231H279.715C277.731 231 276.184 230.52 275.075 229.56C273.965 228.579 273.411 226.989 273.411 224.792V217.688H271.235V213.144H273.411V208.792H278.883V213.144H282.467V217.688H278.883V224.856C278.883 225.389 279.011 225.773 279.267 226.008C279.523 226.243 279.949 226.36 280.547 226.36H282.499ZM293.675 231.256C291.925 231.256 290.347 230.883 288.939 230.136C287.552 229.389 286.453 228.323 285.643 226.936C284.853 225.549 284.459 223.928 284.459 222.072C284.459 220.237 284.864 218.627 285.674 217.24C286.485 215.832 287.595 214.755 289.003 214.008C290.411 213.261 291.989 212.888 293.739 212.888C295.488 212.888 297.067 213.261 298.475 214.008C299.883 214.755 300.992 215.832 301.803 217.24C302.613 218.627 303.019 220.237 303.019 222.072C303.019 223.907 302.603 225.528 301.771 226.936C300.96 228.323 299.84 229.389 298.411 230.136C297.003 230.883 295.424 231.256 293.675 231.256ZM293.675 226.52C294.72 226.52 295.605 226.136 296.331 225.368C297.077 224.6 297.451 223.501 297.451 222.072C297.451 220.643 297.088 219.544 296.363 218.776C295.659 218.008 294.784 217.624 293.739 217.624C292.672 217.624 291.787 218.008 291.083 218.776C290.379 219.523 290.027 220.621 290.027 222.072C290.027 223.501 290.368 224.6 291.051 225.368C291.755 226.136 292.629 226.52 293.675 226.52Z" fill="#5450AD"/>
</g>
<g filter="url(#filter4_d_440_69)">
<rect x="431" width="300" height="80" rx="4" fill="white" shape-rendering="crispEdges"/>
<path d="M486.608 51.224C484.496 51.224 482.555 50.7333 480.784 49.752C479.035 48.7707 477.637 47.4053 476.592 45.656C475.568 43.8853 475.056 41.9013 475.056 39.704C475.056 37.5067 475.568 35.5333 476.592 33.784C477.637 32.0347 479.035 30.6693 480.784 29.688C482.555 28.7067 484.496 28.216 486.608 28.216C488.72 28.216 490.651 28.7067 492.4 29.688C494.171 30.6693 495.557 32.0347 496.56 33.784C497.584 35.5333 498.096 37.5067 498.096 39.704C498.096 41.9013 497.584 43.8853 496.56 45.656C495.536 47.4053 494.149 48.7707 492.4 49.752C490.651 50.7333 488.72 51.224 486.608 51.224ZM486.608 46.232C488.4 46.232 489.829 45.6347 490.896 44.44C491.984 43.2453 492.528 41.6667 492.528 39.704C492.528 37.72 491.984 36.1413 490.896 34.968C489.829 33.7733 488.4 33.176 486.608 33.176C484.795 33.176 483.344 33.7627 482.256 34.936C481.189 36.1093 480.656 37.6987 480.656 39.704C480.656 41.688 481.189 43.2773 482.256 44.472C483.344 45.6453 484.795 46.232 486.608 46.232ZM506.612 36.12C507.252 35.1387 508.052 34.3707 509.012 33.816C509.972 33.24 511.039 32.952 512.212 32.952V38.744H510.708C509.343 38.744 508.319 39.0427 507.636 39.64C506.954 40.216 506.612 41.24 506.612 42.712V51H501.14V33.144H506.612V36.12ZM522.604 46.584C524.012 46.584 524.961 45.9013 525.452 44.536H531.276C530.87 46.3493 530.06 47.832 528.844 48.984C527.628 50.136 526.113 50.8507 524.3 51.128V52.312C525.409 52.312 526.38 52.6107 527.212 53.208C528.044 53.8267 528.46 54.744 528.46 55.96C528.46 57.176 528.022 58.0933 527.148 58.712C526.273 59.352 525.228 59.672 524.012 59.672H519.084V56.664H523.276C523.702 56.664 524.022 56.6 524.236 56.472C524.449 56.344 524.556 56.1307 524.556 55.832C524.556 55.5333 524.449 55.32 524.236 55.192C524.022 55.0853 523.702 55.032 523.276 55.032H521.004V51.128C518.806 50.7867 517.046 49.816 515.724 48.216C514.401 46.5947 513.74 44.5467 513.74 42.072C513.74 40.216 514.113 38.5947 514.86 37.208C515.628 35.8213 516.684 34.7547 518.028 34.008C519.393 33.2613 520.95 32.888 522.7 32.888C524.94 32.888 526.806 33.4747 528.3 34.648C529.814 35.8213 530.806 37.4747 531.276 39.608H525.452C524.961 38.2427 524.012 37.56 522.604 37.56C521.601 37.56 520.801 37.9547 520.204 38.744C519.606 39.512 519.308 40.6213 519.308 42.072C519.308 43.5227 519.606 44.6427 520.204 45.432C520.801 46.2 521.601 46.584 522.604 46.584ZM533.115 42.04C533.115 40.2053 533.456 38.5947 534.139 37.208C534.843 35.8213 535.792 34.7547 536.987 34.008C538.181 33.2613 539.515 32.888 540.987 32.888C542.245 32.888 543.344 33.144 544.283 33.656C545.243 34.168 545.979 34.84 546.491 35.672V33.144H551.963V51H546.491V48.472C545.957 49.304 545.211 49.976 544.251 50.488C543.312 51 542.213 51.256 540.955 51.256C539.504 51.256 538.181 50.8827 536.987 50.136C535.792 49.368 534.843 48.2907 534.139 46.904C533.456 45.496 533.115 43.8747 533.115 42.04ZM546.491 42.072C546.491 40.7067 546.107 39.6293 545.339 38.84C544.592 38.0507 543.675 37.656 542.587 37.656C541.499 37.656 540.571 38.0507 539.803 38.84C539.056 39.608 538.683 40.6747 538.683 42.04C538.683 43.4053 539.056 44.4933 539.803 45.304C540.571 46.0933 541.499 46.488 542.587 46.488C543.675 46.488 544.592 46.0933 545.339 45.304C546.107 44.5147 546.491 43.4373 546.491 42.072ZM578.706 32.952C580.924 32.952 582.684 33.624 583.986 34.968C585.308 36.312 585.97 38.1787 585.97 40.568V51H580.53V41.304C580.53 40.152 580.22 39.2667 579.602 38.648C579.004 38.008 578.172 37.688 577.106 37.688C576.039 37.688 575.196 38.008 574.578 38.648C573.98 39.2667 573.682 40.152 573.682 41.304V51H568.242V41.304C568.242 40.152 567.932 39.2667 567.314 38.648C566.716 38.008 565.884 37.688 564.818 37.688C563.751 37.688 562.908 38.008 562.29 38.648C561.692 39.2667 561.394 40.152 561.394 41.304V51H555.922V33.144H561.394V35.384C561.948 34.6373 562.674 34.0507 563.57 33.624C564.466 33.176 565.479 32.952 566.61 32.952C567.954 32.952 569.148 33.24 570.194 33.816C571.26 34.392 572.092 35.2133 572.69 36.28C573.308 35.2987 574.151 34.4987 575.218 33.88C576.284 33.2613 577.447 32.952 578.706 32.952ZM606.628 41.784C606.628 42.296 606.597 42.8293 606.533 43.384H594.149C594.234 44.4933 594.586 45.3467 595.205 45.944C595.845 46.52 596.623 46.808 597.541 46.808C598.906 46.808 599.855 46.232 600.389 45.08H606.213C605.914 46.2533 605.37 47.3093 604.581 48.248C603.813 49.1867 602.842 49.9227 601.669 50.456C600.495 50.9893 599.183 51.256 597.733 51.256C595.983 51.256 594.426 50.8827 593.061 50.136C591.695 49.3893 590.629 48.3227 589.861 46.936C589.093 45.5493 588.709 43.928 588.709 42.072C588.709 40.216 589.082 38.5947 589.829 37.208C590.597 35.8213 591.663 34.7547 593.029 34.008C594.394 33.2613 595.962 32.888 597.733 32.888C599.461 32.888 600.997 33.2507 602.341 33.976C603.685 34.7013 604.73 35.736 605.477 37.08C606.245 38.424 606.628 39.992 606.628 41.784ZM601.029 40.344C601.029 39.4053 600.709 38.6587 600.069 38.104C599.429 37.5493 598.629 37.272 597.669 37.272C596.751 37.272 595.973 37.5387 595.333 38.072C594.714 38.6053 594.33 39.3627 594.181 40.344H601.029ZM620.395 32.952C622.486 32.952 624.15 33.6347 625.387 35C626.646 36.344 627.275 38.2 627.275 40.568V51H621.835V41.304C621.835 40.1093 621.526 39.1813 620.907 38.52C620.289 37.8587 619.457 37.528 618.411 37.528C617.366 37.528 616.534 37.8587 615.915 38.52C615.297 39.1813 614.987 40.1093 614.987 41.304V51H609.515V33.144H614.987V35.512C615.542 34.7227 616.289 34.104 617.227 33.656C618.166 33.1867 619.222 32.952 620.395 32.952ZM641.03 46.36V51H638.246C636.262 51 634.715 50.52 633.606 49.56C632.496 48.5787 631.942 46.9893 631.942 44.792V37.688H629.766V33.144H631.942V28.792H637.414V33.144H640.998V37.688H637.414V44.856C637.414 45.3893 637.542 45.7733 637.798 46.008C638.054 46.2427 638.48 46.36 639.078 46.36H641.03ZM652.206 51.256C650.456 51.256 648.878 50.8827 647.47 50.136C646.083 49.3893 644.984 48.3227 644.174 46.936C643.384 45.5493 642.99 43.928 642.99 42.072C642.99 40.2373 643.395 38.6267 644.206 37.24C645.016 35.832 646.126 34.7547 647.534 34.008C648.942 33.2613 650.52 32.888 652.27 32.888C654.019 32.888 655.598 33.2613 657.006 34.008C658.414 34.7547 659.523 35.832 660.334 37.24C661.144 38.6267 661.55 40.2373 661.55 42.072C661.55 43.9067 661.134 45.528 660.302 46.936C659.491 48.3227 658.371 49.3893 656.942 50.136C655.534 50.8827 653.955 51.256 652.206 51.256ZM652.206 46.52C653.251 46.52 654.136 46.136 654.862 45.368C655.608 44.6 655.982 43.5013 655.982 42.072C655.982 40.6427 655.619 39.544 654.894 38.776C654.19 38.008 653.315 37.624 652.27 37.624C651.203 37.624 650.318 38.008 649.614 38.776C648.91 39.5227 648.558 40.6213 648.558 42.072C648.558 43.5013 648.899 44.6 649.582 45.368C650.286 46.136 651.16 46.52 652.206 46.52Z" fill="#5450AD"/>
</g>
<g filter="url(#filter5_d_440_69)">
<rect x="862" width="300" height="80" rx="4" fill="white" shape-rendering="crispEdges"/>
<path d="M884.864 32.728V27.64H893.728V51H888.032V32.728H884.864ZM896.831 34.072C896.831 32.9413 897.098 31.9493 897.631 31.096C898.186 30.2213 898.954 29.5387 899.935 29.048C900.938 28.5573 902.079 28.312 903.359 28.312C904.639 28.312 905.77 28.5573 906.751 29.048C907.754 29.5387 908.522 30.2213 909.055 31.096C909.61 31.9493 909.887 32.9413 909.887 34.072C909.887 35.2027 909.61 36.2053 909.055 37.08C908.501 37.9547 907.722 38.648 906.719 39.16C905.738 39.6507 904.607 39.896 903.327 39.896C902.047 39.896 900.917 39.6507 899.935 39.16C898.954 38.648 898.186 37.9547 897.631 37.08C897.098 36.2053 896.831 35.2027 896.831 34.072ZM905.663 34.104C905.663 33.2507 905.439 32.6 904.991 32.152C904.543 31.704 903.989 31.48 903.327 31.48C902.687 31.48 902.143 31.704 901.695 32.152C901.269 32.6 901.055 33.2507 901.055 34.104C901.055 34.936 901.269 35.576 901.695 36.024C902.122 36.472 902.666 36.696 903.327 36.696C903.989 36.696 904.543 36.472 904.991 36.024C905.439 35.5547 905.663 34.9147 905.663 34.104ZM936.573 35.768C936.573 37.0693 936.274 38.264 935.677 39.352C935.079 40.4187 934.162 41.2827 932.925 41.944C931.687 42.6053 930.151 42.936 928.317 42.936H924.925V51H919.453V28.536H928.317C930.109 28.536 931.623 28.8453 932.861 29.464C934.098 30.0827 935.026 30.936 935.645 32.024C936.263 33.112 936.573 34.36 936.573 35.768ZM927.901 38.584C928.946 38.584 929.725 38.3387 930.237 37.848C930.749 37.3573 931.005 36.664 931.005 35.768C931.005 34.872 930.749 34.1787 930.237 33.688C929.725 33.1973 928.946 32.952 927.901 32.952H924.925V38.584H927.901ZM938.334 42.04C938.334 40.2053 938.675 38.5947 939.358 37.208C940.062 35.8213 941.011 34.7547 942.206 34.008C943.4 33.2613 944.734 32.888 946.206 32.888C947.464 32.888 948.563 33.144 949.502 33.656C950.462 34.168 951.198 34.84 951.71 35.672V33.144H957.182V51H951.71V48.472C951.176 49.304 950.43 49.976 949.47 50.488C948.531 51 947.432 51.256 946.174 51.256C944.723 51.256 943.4 50.8827 942.206 50.136C941.011 49.368 940.062 48.2907 939.358 46.904C938.675 45.496 938.334 43.8747 938.334 42.04ZM951.71 42.072C951.71 40.7067 951.326 39.6293 950.558 38.84C949.811 38.0507 948.894 37.656 947.806 37.656C946.718 37.656 945.79 38.0507 945.022 38.84C944.275 39.608 943.902 40.6747 943.902 42.04C943.902 43.4053 944.275 44.4933 945.022 45.304C945.79 46.0933 946.718 46.488 947.806 46.488C948.894 46.488 949.811 46.0933 950.558 45.304C951.326 44.5147 951.71 43.4373 951.71 42.072ZM967.924 32.888C969.183 32.888 970.282 33.144 971.22 33.656C972.18 34.168 972.916 34.84 973.428 35.672V33.144H978.9V50.968C978.9 52.6107 978.57 54.0933 977.908 55.416C977.268 56.76 976.276 57.8267 974.932 58.616C973.61 59.4053 971.956 59.8 969.972 59.8C967.327 59.8 965.183 59.1707 963.54 57.912C961.898 56.6747 960.959 54.9893 960.724 52.856H966.132C966.303 53.5387 966.708 54.072 967.348 54.456C967.988 54.8613 968.778 55.064 969.716 55.064C970.847 55.064 971.743 54.7333 972.404 54.072C973.087 53.432 973.428 52.3973 973.428 50.968V48.44C972.895 49.272 972.159 49.9547 971.22 50.488C970.282 51 969.183 51.256 967.924 51.256C966.452 51.256 965.119 50.8827 963.924 50.136C962.73 49.368 961.78 48.2907 961.076 46.904C960.394 45.496 960.052 43.8747 960.052 42.04C960.052 40.2053 960.394 38.5947 961.076 37.208C961.78 35.8213 962.73 34.7547 963.924 34.008C965.119 33.2613 966.452 32.888 967.924 32.888ZM973.428 42.072C973.428 40.7067 973.044 39.6293 972.276 38.84C971.53 38.0507 970.612 37.656 969.524 37.656C968.436 37.656 967.508 38.0507 966.74 38.84C965.994 39.608 965.62 40.6747 965.62 42.04C965.62 43.4053 965.994 44.4933 966.74 45.304C967.508 46.0933 968.436 46.488 969.524 46.488C970.612 46.488 971.53 46.0933 972.276 45.304C973.044 44.5147 973.428 43.4373 973.428 42.072ZM981.771 42.04C981.771 40.2053 982.112 38.5947 982.795 37.208C983.499 35.8213 984.448 34.7547 985.643 34.008C986.838 33.2613 988.171 32.888 989.643 32.888C990.902 32.888 992 33.144 992.939 33.656C993.899 34.168 994.635 34.84 995.147 35.672V33.144H1000.62V51H995.147V48.472C994.614 49.304 993.867 49.976 992.907 50.488C991.968 51 990.87 51.256 989.611 51.256C988.16 51.256 986.838 50.8827 985.643 50.136C984.448 49.368 983.499 48.2907 982.795 46.904C982.112 45.496 981.771 43.8747 981.771 42.04ZM995.147 42.072C995.147 40.7067 994.763 39.6293 993.995 38.84C993.248 38.0507 992.331 37.656 991.243 37.656C990.155 37.656 989.227 38.0507 988.459 38.84C987.712 39.608 987.339 40.6747 987.339 42.04C987.339 43.4053 987.712 44.4933 988.459 45.304C989.227 46.0933 990.155 46.488 991.243 46.488C992.331 46.488 993.248 46.0933 993.995 45.304C994.763 44.5147 995.147 43.4373 995.147 42.072ZM1027.36 32.952C1029.58 32.952 1031.34 33.624 1032.64 34.968C1033.96 36.312 1034.63 38.1787 1034.63 40.568V51H1029.19V41.304C1029.19 40.152 1028.88 39.2667 1028.26 38.648C1027.66 38.008 1026.83 37.688 1025.76 37.688C1024.7 37.688 1023.85 38.008 1023.23 38.648C1022.64 39.2667 1022.34 40.152 1022.34 41.304V51H1016.9V41.304C1016.9 40.152 1016.59 39.2667 1015.97 38.648C1015.37 38.008 1014.54 37.688 1013.47 37.688C1012.41 37.688 1011.56 38.008 1010.95 38.648C1010.35 39.2667 1010.05 40.152 1010.05 41.304V51H1004.58V33.144H1010.05V35.384C1010.6 34.6373 1011.33 34.0507 1012.23 33.624C1013.12 33.176 1014.14 32.952 1015.27 32.952C1016.61 32.952 1017.8 33.24 1018.85 33.816C1019.92 34.392 1020.75 35.2133 1021.35 36.28C1021.96 35.2987 1022.81 34.4987 1023.87 33.88C1024.94 33.2613 1026.1 32.952 1027.36 32.952ZM1055.28 41.784C1055.28 42.296 1055.25 42.8293 1055.19 43.384H1042.8C1042.89 44.4933 1043.24 45.3467 1043.86 45.944C1044.5 46.52 1045.28 46.808 1046.2 46.808C1047.56 46.808 1048.51 46.232 1049.04 45.08H1054.87C1054.57 46.2533 1054.03 47.3093 1053.24 48.248C1052.47 49.1867 1051.5 49.9227 1050.32 50.456C1049.15 50.9893 1047.84 51.256 1046.39 51.256C1044.64 51.256 1043.08 50.8827 1041.72 50.136C1040.35 49.3893 1039.28 48.3227 1038.52 46.936C1037.75 45.5493 1037.36 43.928 1037.36 42.072C1037.36 40.216 1037.74 38.5947 1038.48 37.208C1039.25 35.8213 1040.32 34.7547 1041.68 34.008C1043.05 33.2613 1044.62 32.888 1046.39 32.888C1048.12 32.888 1049.65 33.2507 1051 33.976C1052.34 34.7013 1053.39 35.736 1054.13 37.08C1054.9 38.424 1055.28 39.992 1055.28 41.784ZM1049.68 40.344C1049.68 39.4053 1049.36 38.6587 1048.72 38.104C1048.08 37.5493 1047.28 37.272 1046.32 37.272C1045.41 37.272 1044.63 37.5387 1043.99 38.072C1043.37 38.6053 1042.99 39.3627 1042.84 40.344H1049.68ZM1069.05 32.952C1071.14 32.952 1072.81 33.6347 1074.04 35C1075.3 36.344 1075.93 38.2 1075.93 40.568V51H1070.49V41.304C1070.49 40.1093 1070.18 39.1813 1069.56 38.52C1068.94 37.8587 1068.11 37.528 1067.07 37.528C1066.02 37.528 1065.19 37.8587 1064.57 38.52C1063.95 39.1813 1063.64 40.1093 1063.64 41.304V51H1058.17V33.144H1063.64V35.512C1064.2 34.7227 1064.94 34.104 1065.88 33.656C1066.82 33.1867 1067.88 32.952 1069.05 32.952ZM1089.69 46.36V51H1086.9C1084.92 51 1083.37 50.52 1082.26 49.56C1081.15 48.5787 1080.6 46.9893 1080.6 44.792V37.688H1078.42V33.144H1080.6V28.792H1086.07V33.144H1089.65V37.688H1086.07V44.856C1086.07 45.3893 1086.2 45.7733 1086.45 46.008C1086.71 46.2427 1087.14 46.36 1087.73 46.36H1089.69ZM1100.86 51.256C1099.11 51.256 1097.53 50.8827 1096.13 50.136C1094.74 49.3893 1093.64 48.3227 1092.83 46.936C1092.04 45.5493 1091.65 43.928 1091.65 42.072C1091.65 40.2373 1092.05 38.6267 1092.86 37.24C1093.67 35.832 1094.78 34.7547 1096.19 34.008C1097.6 33.2613 1099.18 32.888 1100.93 32.888C1102.68 32.888 1104.25 33.2613 1105.66 34.008C1107.07 34.7547 1108.18 35.832 1108.99 37.24C1109.8 38.6267 1110.21 40.2373 1110.21 42.072C1110.21 43.9067 1109.79 45.528 1108.96 46.936C1108.15 48.3227 1107.03 49.3893 1105.6 50.136C1104.19 50.8827 1102.61 51.256 1100.86 51.256ZM1100.86 46.52C1101.91 46.52 1102.79 46.136 1103.52 45.368C1104.26 44.6 1104.64 43.5013 1104.64 42.072C1104.64 40.6427 1104.28 39.544 1103.55 38.776C1102.85 38.008 1101.97 37.624 1100.93 37.624C1099.86 37.624 1098.97 38.008 1098.27 38.776C1097.57 39.5227 1097.21 40.6213 1097.21 42.072C1097.21 43.5013 1097.56 44.6 1098.24 45.368C1098.94 46.136 1099.82 46.52 1100.86 46.52Z" fill="#5450AD"/>
</g>
<g filter="url(#filter6_d_440_69)">
<rect y="387" width="300" height="80" rx="4" fill="white" shape-rendering="crispEdges"/>
<path d="M62.968 434.032H54.584L53.24 438H47.512L55.64 415.536H61.976L70.104 438H64.312L62.968 434.032ZM61.56 429.808L58.776 421.584L56.024 429.808H61.56ZM78.0498 422.672C78.5831 421.84 79.3191 421.168 80.2578 420.656C81.1964 420.144 82.2951 419.888 83.5538 419.888C85.0258 419.888 86.3591 420.261 87.5538 421.008C88.7484 421.755 89.6871 422.821 90.3698 424.208C91.0738 425.595 91.4258 427.205 91.4258 429.04C91.4258 430.875 91.0738 432.496 90.3698 433.904C89.6871 435.291 88.7484 436.368 87.5538 437.136C86.3591 437.883 85.0258 438.256 83.5538 438.256C82.3164 438.256 81.2178 438 80.2578 437.488C79.3191 436.976 78.5831 436.315 78.0498 435.504V446.512H72.5778V420.144H78.0498V422.672ZM85.8578 429.04C85.8578 427.675 85.4738 426.608 84.7058 425.84C83.9591 425.051 83.0311 424.656 81.9218 424.656C80.8338 424.656 79.9058 425.051 79.1378 425.84C78.3911 426.629 78.0178 427.707 78.0178 429.072C78.0178 430.437 78.3911 431.515 79.1378 432.304C79.9058 433.093 80.8338 433.488 81.9218 433.488C83.0098 433.488 83.9378 433.093 84.7058 432.304C85.4738 431.493 85.8578 430.405 85.8578 429.04ZM99.7685 423.12C100.409 422.139 101.209 421.371 102.169 420.816C103.129 420.24 104.195 419.952 105.369 419.952V425.744H103.865C102.499 425.744 101.475 426.043 100.793 426.64C100.11 427.216 99.7685 428.24 99.7685 429.712V438H94.2965V420.144H99.7685V423.12ZM116.112 438.256C114.363 438.256 112.784 437.883 111.376 437.136C109.989 436.389 108.891 435.323 108.08 433.936C107.291 432.549 106.896 430.928 106.896 429.072C106.896 427.237 107.301 425.627 108.112 424.24C108.923 422.832 110.032 421.755 111.44 421.008C112.848 420.261 114.427 419.888 116.176 419.888C117.925 419.888 119.504 420.261 120.912 421.008C122.32 421.755 123.429 422.832 124.24 424.24C125.051 425.627 125.456 427.237 125.456 429.072C125.456 430.907 125.04 432.528 124.208 433.936C123.397 435.323 122.277 436.389 120.848 437.136C119.44 437.883 117.861 438.256 116.112 438.256ZM116.112 433.52C117.157 433.52 118.043 433.136 118.768 432.368C119.515 431.6 119.888 430.501 119.888 429.072C119.888 427.643 119.525 426.544 118.8 425.776C118.096 425.008 117.221 424.624 116.176 424.624C115.109 424.624 114.224 425.008 113.52 425.776C112.816 426.523 112.464 427.621 112.464 429.072C112.464 430.501 112.805 431.6 113.488 432.368C114.192 433.136 115.067 433.52 116.112 433.52ZM136.391 432.88L140.263 420.144H146.087L139.751 438H132.999L126.663 420.144H132.519L136.391 432.88ZM147.302 429.04C147.302 427.205 147.644 425.595 148.326 424.208C149.03 422.821 149.98 421.755 151.174 421.008C152.369 420.261 153.702 419.888 155.174 419.888C156.433 419.888 157.532 420.144 158.47 420.656C159.43 421.168 160.166 421.84 160.678 422.672V420.144H166.15V438H160.678V435.472C160.145 436.304 159.398 436.976 158.438 437.488C157.5 438 156.401 438.256 155.142 438.256C153.692 438.256 152.369 437.883 151.174 437.136C149.98 436.368 149.03 435.291 148.326 433.904C147.644 432.496 147.302 430.875 147.302 429.04ZM160.678 429.072C160.678 427.707 160.294 426.629 159.526 425.84C158.78 425.051 157.862 424.656 156.774 424.656C155.686 424.656 154.758 425.051 153.99 425.84C153.244 426.608 152.87 427.675 152.87 429.04C152.87 430.405 153.244 431.493 153.99 432.304C154.758 433.093 155.686 433.488 156.774 433.488C157.862 433.488 158.78 433.093 159.526 432.304C160.294 431.515 160.678 430.437 160.678 429.072ZM177.885 433.584C179.293 433.584 180.242 432.901 180.733 431.536H186.557C186.152 433.349 185.341 434.832 184.125 435.984C182.909 437.136 181.394 437.851 179.581 438.128V439.312C180.69 439.312 181.661 439.611 182.493 440.208C183.325 440.827 183.741 441.744 183.741 442.96C183.741 444.176 183.304 445.093 182.429 445.712C181.554 446.352 180.509 446.672 179.293 446.672H174.365V443.664H178.557C178.984 443.664 179.304 443.6 179.517 443.472C179.73 443.344 179.837 443.131 179.837 442.832C179.837 442.533 179.73 442.32 179.517 442.192C179.304 442.085 178.984 442.032 178.557 442.032H176.285V438.128C174.088 437.787 172.328 436.816 171.005 435.216C169.682 433.595 169.021 431.547 169.021 429.072C169.021 427.216 169.394 425.595 170.141 424.208C170.909 422.821 171.965 421.755 173.309 421.008C174.674 420.261 176.232 419.888 177.981 419.888C180.221 419.888 182.088 420.475 183.581 421.648C185.096 422.821 186.088 424.475 186.557 426.608H180.733C180.242 425.243 179.293 424.56 177.885 424.56C176.882 424.56 176.082 424.955 175.485 425.744C174.888 426.512 174.589 427.621 174.589 429.072C174.589 430.523 174.888 431.643 175.485 432.432C176.082 433.2 176.882 433.584 177.885 433.584ZM188.396 429.04C188.396 427.205 188.737 425.595 189.42 424.208C190.124 422.821 191.073 421.755 192.268 421.008C193.463 420.261 194.796 419.888 196.268 419.888C197.527 419.888 198.625 420.144 199.564 420.656C200.524 421.168 201.26 421.84 201.772 422.672V420.144H207.244V438H201.772V435.472C201.239 436.304 200.492 436.976 199.532 437.488C198.593 438 197.495 438.256 196.236 438.256C194.785 438.256 193.463 437.883 192.268 437.136C191.073 436.368 190.124 435.291 189.42 433.904C188.737 432.496 188.396 430.875 188.396 429.04ZM201.772 429.072C201.772 427.707 201.388 426.629 200.62 425.84C199.873 425.051 198.956 424.656 197.868 424.656C196.78 424.656 195.852 425.051 195.084 425.84C194.337 426.608 193.964 427.675 193.964 429.04C193.964 430.405 194.337 431.493 195.084 432.304C195.852 433.093 196.78 433.488 197.868 433.488C198.956 433.488 199.873 433.093 200.62 432.304C201.388 431.515 201.772 430.437 201.772 429.072ZM192.076 418.64C192.588 415.483 194.06 413.904 196.492 413.904C196.961 413.904 197.367 413.979 197.708 414.128C198.071 414.256 198.508 414.459 199.02 414.736C199.404 414.949 199.713 415.109 199.948 415.216C200.183 415.301 200.428 415.344 200.684 415.344C201.473 415.344 201.932 414.864 202.06 413.904H204.876C204.364 417.061 202.892 418.64 200.46 418.64C199.991 418.64 199.575 418.576 199.212 418.448C198.871 418.299 198.444 418.085 197.932 417.808C197.548 417.595 197.239 417.445 197.004 417.36C196.769 417.253 196.524 417.2 196.268 417.2C195.479 417.2 195.009 417.68 194.86 418.64H192.076ZM219.331 438.256C217.581 438.256 216.003 437.883 214.595 437.136C213.208 436.389 212.109 435.323 211.299 433.936C210.509 432.549 210.115 430.928 210.115 429.072C210.115 427.237 210.52 425.627 211.331 424.24C212.141 422.832 213.251 421.755 214.659 421.008C216.067 420.261 217.645 419.888 219.395 419.888C221.144 419.888 222.723 420.261 224.131 421.008C225.539 421.755 226.648 422.832 227.459 424.24C228.269 425.627 228.675 427.237 228.675 429.072C228.675 430.907 228.259 432.528 227.427 433.936C226.616 435.323 225.496 436.389 224.067 437.136C222.659 437.883 221.08 438.256 219.331 438.256ZM219.331 433.52C220.376 433.52 221.261 433.136 221.987 432.368C222.733 431.6 223.107 430.501 223.107 429.072C223.107 427.643 222.744 426.544 222.019 425.776C221.315 425.008 220.44 424.624 219.395 424.624C218.328 424.624 217.443 425.008 216.739 425.776C216.035 426.523 215.683 427.621 215.683 429.072C215.683 430.501 216.024 431.6 216.707 432.368C217.411 433.136 218.285 433.52 219.331 433.52Z" fill="#5450AD"/>
</g>
<g filter="url(#filter7_d_440_69)">
<rect x="431" y="387" width="300" height="80" rx="4" fill="white" shape-rendering="crispEdges"/>
<path d="M450.248 433.616C450.973 433.04 451.304 432.773 451.24 432.816C453.331 431.088 454.973 429.669 456.168 428.56C457.384 427.451 458.408 426.288 459.24 425.072C460.072 423.856 460.488 422.672 460.488 421.52C460.488 420.645 460.285 419.963 459.88 419.472C459.475 418.981 458.867 418.736 458.056 418.736C457.245 418.736 456.605 419.045 456.136 419.664C455.688 420.261 455.464 421.115 455.464 422.224H450.184C450.227 420.411 450.611 418.896 451.336 417.68C452.083 416.464 453.053 415.568 454.248 414.992C455.464 414.416 456.808 414.128 458.28 414.128C460.819 414.128 462.728 414.779 464.008 416.08C465.309 417.381 465.96 419.077 465.96 421.168C465.96 423.451 465.181 425.573 463.624 427.536C462.067 429.477 460.083 431.376 457.672 433.232H466.312V437.68H450.248V433.616ZM468.081 421.072C468.081 419.941 468.348 418.949 468.881 418.096C469.436 417.221 470.204 416.539 471.185 416.048C472.188 415.557 473.329 415.312 474.609 415.312C475.889 415.312 477.02 415.557 478.001 416.048C479.004 416.539 479.772 417.221 480.305 418.096C480.86 418.949 481.137 419.941 481.137 421.072C481.137 422.203 480.86 423.205 480.305 424.08C479.751 424.955 478.972 425.648 477.969 426.16C476.988 426.651 475.857 426.896 474.577 426.896C473.297 426.896 472.167 426.651 471.185 426.16C470.204 425.648 469.436 424.955 468.881 424.08C468.348 423.205 468.081 422.203 468.081 421.072ZM476.913 421.104C476.913 420.251 476.689 419.6 476.241 419.152C475.793 418.704 475.239 418.48 474.577 418.48C473.937 418.48 473.393 418.704 472.945 419.152C472.519 419.6 472.305 420.251 472.305 421.104C472.305 421.936 472.519 422.576 472.945 423.024C473.372 423.472 473.916 423.696 474.577 423.696C475.239 423.696 475.793 423.472 476.241 423.024C476.689 422.555 476.913 421.915 476.913 421.104ZM507.823 422.768C507.823 424.069 507.524 425.264 506.927 426.352C506.329 427.419 505.412 428.283 504.175 428.944C502.937 429.605 501.401 429.936 499.567 429.936H496.175V438H490.703V415.536H499.567C501.359 415.536 502.873 415.845 504.111 416.464C505.348 417.083 506.276 417.936 506.895 419.024C507.513 420.112 507.823 421.36 507.823 422.768ZM499.151 425.584C500.196 425.584 500.975 425.339 501.487 424.848C501.999 424.357 502.255 423.664 502.255 422.768C502.255 421.872 501.999 421.179 501.487 420.688C500.975 420.197 500.196 419.952 499.151 419.952H496.175V425.584H499.151ZM509.584 429.04C509.584 427.205 509.925 425.595 510.608 424.208C511.312 422.821 512.261 421.755 513.456 421.008C514.65 420.261 515.984 419.888 517.456 419.888C518.714 419.888 519.813 420.144 520.752 420.656C521.712 421.168 522.448 421.84 522.96 422.672V420.144H528.432V438H522.96V435.472C522.426 436.304 521.68 436.976 520.72 437.488C519.781 438 518.682 438.256 517.424 438.256C515.973 438.256 514.65 437.883 513.456 437.136C512.261 436.368 511.312 435.291 510.608 433.904C509.925 432.496 509.584 430.875 509.584 429.04ZM522.96 429.072C522.96 427.707 522.576 426.629 521.808 425.84C521.061 425.051 520.144 424.656 519.056 424.656C517.968 424.656 517.04 425.051 516.272 425.84C515.525 426.608 515.152 427.675 515.152 429.04C515.152 430.405 515.525 431.493 516.272 432.304C517.04 433.093 517.968 433.488 519.056 433.488C520.144 433.488 521.061 433.093 521.808 432.304C522.576 431.515 522.96 430.437 522.96 429.072ZM539.174 419.888C540.433 419.888 541.532 420.144 542.47 420.656C543.43 421.168 544.166 421.84 544.678 422.672V420.144H550.15V437.968C550.15 439.611 549.82 441.093 549.158 442.416C548.518 443.76 547.526 444.827 546.182 445.616C544.86 446.405 543.206 446.8 541.222 446.8C538.577 446.8 536.433 446.171 534.79 444.912C533.148 443.675 532.209 441.989 531.974 439.856H537.382C537.553 440.539 537.958 441.072 538.598 441.456C539.238 441.861 540.028 442.064 540.966 442.064C542.097 442.064 542.993 441.733 543.654 441.072C544.337 440.432 544.678 439.397 544.678 437.968V435.44C544.145 436.272 543.409 436.955 542.47 437.488C541.532 438 540.433 438.256 539.174 438.256C537.702 438.256 536.369 437.883 535.174 437.136C533.98 436.368 533.03 435.291 532.326 433.904C531.644 432.496 531.302 430.875 531.302 429.04C531.302 427.205 531.644 425.595 532.326 424.208C533.03 422.821 533.98 421.755 535.174 421.008C536.369 420.261 537.702 419.888 539.174 419.888ZM544.678 429.072C544.678 427.707 544.294 426.629 543.526 425.84C542.78 425.051 541.862 424.656 540.774 424.656C539.686 424.656 538.758 425.051 537.99 425.84C537.244 426.608 536.87 427.675 536.87 429.04C536.87 430.405 537.244 431.493 537.99 432.304C538.758 433.093 539.686 433.488 540.774 433.488C541.862 433.488 542.78 433.093 543.526 432.304C544.294 431.515 544.678 430.437 544.678 429.072ZM553.021 429.04C553.021 427.205 553.362 425.595 554.045 424.208C554.749 422.821 555.698 421.755 556.893 421.008C558.088 420.261 559.421 419.888 560.893 419.888C562.152 419.888 563.25 420.144 564.189 420.656C565.149 421.168 565.885 421.84 566.397 422.672V420.144H571.869V438H566.397V435.472C565.864 436.304 565.117 436.976 564.157 437.488C563.218 438 562.12 438.256 560.861 438.256C559.41 438.256 558.088 437.883 556.893 437.136C555.698 436.368 554.749 435.291 554.045 433.904C553.362 432.496 553.021 430.875 553.021 429.04ZM566.397 429.072C566.397 427.707 566.013 426.629 565.245 425.84C564.498 425.051 563.581 424.656 562.493 424.656C561.405 424.656 560.477 425.051 559.709 425.84C558.962 426.608 558.589 427.675 558.589 429.04C558.589 430.405 558.962 431.493 559.709 432.304C560.477 433.093 561.405 433.488 562.493 433.488C563.581 433.488 564.498 433.093 565.245 432.304C566.013 431.515 566.397 430.437 566.397 429.072ZM598.612 419.952C600.83 419.952 602.59 420.624 603.892 421.968C605.214 423.312 605.876 425.179 605.876 427.568V438H600.436V428.304C600.436 427.152 600.126 426.267 599.508 425.648C598.91 425.008 598.078 424.688 597.012 424.688C595.945 424.688 595.102 425.008 594.484 425.648C593.886 426.267 593.588 427.152 593.588 428.304V438H588.148V428.304C588.148 427.152 587.838 426.267 587.22 425.648C586.622 425.008 585.79 424.688 584.724 424.688C583.657 424.688 582.814 425.008 582.196 425.648C581.598 426.267 581.3 427.152 581.3 428.304V438H575.828V420.144H581.3V422.384C581.854 421.637 582.58 421.051 583.476 420.624C584.372 420.176 585.385 419.952 586.516 419.952C587.86 419.952 589.054 420.24 590.1 420.816C591.166 421.392 591.998 422.213 592.596 423.28C593.214 422.299 594.057 421.499 595.124 420.88C596.19 420.261 597.353 419.952 598.612 419.952ZM626.535 428.784C626.535 429.296 626.503 429.829 626.439 430.384H614.055C614.14 431.493 614.492 432.347 615.111 432.944C615.751 433.52 616.529 433.808 617.447 433.808C618.812 433.808 619.761 433.232 620.295 432.08H626.119C625.82 433.253 625.276 434.309 624.487 435.248C623.719 436.187 622.748 436.923 621.575 437.456C620.401 437.989 619.089 438.256 617.639 438.256C615.889 438.256 614.332 437.883 612.967 437.136C611.601 436.389 610.535 435.323 609.767 433.936C608.999 432.549 608.615 430.928 608.615 429.072C608.615 427.216 608.988 425.595 609.735 424.208C610.503 422.821 611.569 421.755 612.935 421.008C614.3 420.261 615.868 419.888 617.639 419.888C619.367 419.888 620.903 420.251 622.247 420.976C623.591 421.701 624.636 422.736 625.383 424.08C626.151 425.424 626.535 426.992 626.535 428.784ZM620.935 427.344C620.935 426.405 620.615 425.659 619.975 425.104C619.335 424.549 618.535 424.272 617.575 424.272C616.657 424.272 615.879 424.539 615.239 425.072C614.62 425.605 614.236 426.363 614.087 427.344H620.935ZM640.302 419.952C642.392 419.952 644.056 420.635 645.294 422C646.552 423.344 647.182 425.2 647.182 427.568V438H641.742V428.304C641.742 427.109 641.432 426.181 640.814 425.52C640.195 424.859 639.363 424.528 638.318 424.528C637.272 424.528 636.44 424.859 635.822 425.52C635.203 426.181 634.894 427.109 634.894 428.304V438H629.422V420.144H634.894V422.512C635.448 421.723 636.195 421.104 637.134 420.656C638.072 420.187 639.128 419.952 640.302 419.952ZM660.936 433.36V438H658.152C656.168 438 654.621 437.52 653.512 436.56C652.403 435.579 651.848 433.989 651.848 431.792V424.688H649.672V420.144H651.848V415.792H657.32V420.144H660.904V424.688H657.32V431.856C657.32 432.389 657.448 432.773 657.704 433.008C657.96 433.243 658.387 433.36 658.984 433.36H660.936ZM672.112 438.256C670.363 438.256 668.784 437.883 667.376 437.136C665.989 436.389 664.891 435.323 664.08 433.936C663.291 432.549 662.896 430.928 662.896 429.072C662.896 427.237 663.301 425.627 664.112 424.24C664.923 422.832 666.032 421.755 667.44 421.008C668.848 420.261 670.427 419.888 672.176 419.888C673.925 419.888 675.504 420.261 676.912 421.008C678.32 421.755 679.429 422.832 680.24 424.24C681.051 425.627 681.456 427.237 681.456 429.072C681.456 430.907 681.04 432.528 680.208 433.936C679.397 435.323 678.277 436.389 676.848 437.136C675.44 437.883 673.861 438.256 672.112 438.256ZM672.112 433.52C673.157 433.52 674.043 433.136 674.768 432.368C675.515 431.6 675.888 430.501 675.888 429.072C675.888 427.643 675.525 426.544 674.8 425.776C674.096 425.008 673.221 424.624 672.176 424.624C671.109 424.624 670.224 425.008 669.52 425.776C668.816 426.523 668.464 427.621 668.464 429.072C668.464 430.501 668.805 431.6 669.488 432.368C670.192 433.136 671.067 433.52 672.112 433.52Z" fill="#5450AD"/>
</g>
<g filter="url(#filter8_d_440_69)">
<rect x="862" y="387" width="300" height="80" rx="4" fill="white" shape-rendering="crispEdges"/>
<path d="M946.456 419.92V424.464H953.784V428.688H946.456V433.616H954.744V438H940.984V415.536H954.744V419.92H946.456ZM969.177 419.952C971.267 419.952 972.931 420.635 974.169 422C975.427 423.344 976.057 425.2 976.057 427.568V438H970.617V428.304C970.617 427.109 970.307 426.181 969.689 425.52C969.07 424.859 968.238 424.528 967.193 424.528C966.147 424.528 965.315 424.859 964.697 425.52C964.078 426.181 963.769 427.109 963.769 428.304V438H958.297V420.144H963.769V422.512C964.323 421.723 965.07 421.104 966.009 420.656C966.947 420.187 968.003 419.952 969.177 419.952ZM989.811 433.36V438H987.027C985.043 438 983.496 437.52 982.387 436.56C981.278 435.579 980.723 433.989 980.723 431.792V424.688H978.547V420.144H980.723V415.792H986.195V420.144H989.779V424.688H986.195V431.856C986.195 432.389 986.323 432.773 986.579 433.008C986.835 433.243 987.262 433.36 987.859 433.36H989.811ZM998.331 423.12C998.971 422.139 999.771 421.371 1000.73 420.816C1001.69 420.24 1002.76 419.952 1003.93 419.952V425.744H1002.43C1001.06 425.744 1000.04 426.043 999.355 426.64C998.672 427.216 998.331 428.24 998.331 429.712V438H992.859V420.144H998.331V423.12ZM1023.38 428.784C1023.38 429.296 1023.35 429.829 1023.28 430.384H1010.9C1010.98 431.493 1011.34 432.347 1011.95 432.944C1012.59 433.52 1013.37 433.808 1014.29 433.808C1015.66 433.808 1016.61 433.232 1017.14 432.08H1022.96C1022.66 433.253 1022.12 434.309 1021.33 435.248C1020.56 436.187 1019.59 436.923 1018.42 437.456C1017.25 437.989 1015.93 438.256 1014.48 438.256C1012.73 438.256 1011.18 437.883 1009.81 437.136C1008.45 436.389 1007.38 435.323 1006.61 433.936C1005.84 432.549 1005.46 430.928 1005.46 429.072C1005.46 427.216 1005.83 425.595 1006.58 424.208C1007.35 422.821 1008.41 421.755 1009.78 421.008C1011.14 420.261 1012.71 419.888 1014.48 419.888C1016.21 419.888 1017.75 420.251 1019.09 420.976C1020.43 421.701 1021.48 422.736 1022.23 424.08C1022.99 425.424 1023.38 426.992 1023.38 428.784ZM1017.78 427.344C1017.78 426.405 1017.46 425.659 1016.82 425.104C1016.18 424.549 1015.38 424.272 1014.42 424.272C1013.5 424.272 1012.72 424.539 1012.08 425.072C1011.46 425.605 1011.08 426.363 1010.93 427.344H1017.78ZM1033.05 419.888C1034.31 419.888 1035.41 420.144 1036.35 420.656C1037.31 421.168 1038.04 421.84 1038.55 422.672V420.144H1044.03V437.968C1044.03 439.611 1043.69 441.093 1043.03 442.416C1042.39 443.76 1041.4 444.827 1040.06 445.616C1038.73 446.405 1037.08 446.8 1035.1 446.8C1032.45 446.8 1030.31 446.171 1028.67 444.912C1027.02 443.675 1026.08 441.989 1025.85 439.856H1031.26C1031.43 440.539 1031.83 441.072 1032.47 441.456C1033.11 441.861 1033.9 442.064 1034.84 442.064C1035.97 442.064 1036.87 441.733 1037.53 441.072C1038.21 440.432 1038.55 439.397 1038.55 437.968V435.44C1038.02 436.272 1037.28 436.955 1036.35 437.488C1035.41 438 1034.31 438.256 1033.05 438.256C1031.58 438.256 1030.24 437.883 1029.05 437.136C1027.85 436.368 1026.91 435.291 1026.2 433.904C1025.52 432.496 1025.18 430.875 1025.18 429.04C1025.18 427.205 1025.52 425.595 1026.2 424.208C1026.91 422.821 1027.85 421.755 1029.05 421.008C1030.24 420.261 1031.58 419.888 1033.05 419.888ZM1038.55 429.072C1038.55 427.707 1038.17 426.629 1037.4 425.84C1036.65 425.051 1035.74 424.656 1034.65 424.656C1033.56 424.656 1032.63 425.051 1031.87 425.84C1031.12 426.608 1030.75 427.675 1030.75 429.04C1030.75 430.405 1031.12 431.493 1031.87 432.304C1032.63 433.093 1033.56 433.488 1034.65 433.488C1035.74 433.488 1036.65 433.093 1037.4 432.304C1038.17 431.515 1038.55 430.437 1038.55 429.072ZM1046.9 429.04C1046.9 427.205 1047.24 425.595 1047.92 424.208C1048.62 422.821 1049.57 421.755 1050.77 421.008C1051.96 420.261 1053.3 419.888 1054.77 419.888C1056.03 419.888 1057.13 420.144 1058.06 420.656C1059.02 421.168 1059.76 421.84 1060.27 422.672V420.144H1065.74V438H1060.27V435.472C1059.74 436.304 1058.99 436.976 1058.03 437.488C1057.09 438 1055.99 438.256 1054.74 438.256C1053.29 438.256 1051.96 437.883 1050.77 437.136C1049.57 436.368 1048.62 435.291 1047.92 433.904C1047.24 432.496 1046.9 430.875 1046.9 429.04ZM1060.27 429.072C1060.27 427.707 1059.89 426.629 1059.12 425.84C1058.37 425.051 1057.46 424.656 1056.37 424.656C1055.28 424.656 1054.35 425.051 1053.58 425.84C1052.84 426.608 1052.46 427.675 1052.46 429.04C1052.46 430.405 1052.84 431.493 1053.58 432.304C1054.35 433.093 1055.28 433.488 1056.37 433.488C1057.46 433.488 1058.37 433.093 1059.12 432.304C1059.89 431.515 1060.27 430.437 1060.27 429.072Z" fill="#5450AD"/>
</g>
<path fill-rule="evenodd" clip-rule="evenodd" d="M386.686 21.8579L399.414 34.5858C400.195 35.3669 400.195 36.6332 399.414 37.4142L386.686 50.1422C385.905 50.9232 384.639 50.9232 383.858 50.1422C383.077 49.3611 383.077 48.0948 383.858 47.3137L393.172 38H330V34H393.172L383.858 24.6863C383.077 23.9053 383.077 22.6389 383.858 21.8579C384.639 21.0768 385.905 21.0768 386.686 21.8579Z" fill="#CCABD8"/>
<path fill-rule="evenodd" clip-rule="evenodd" d="M387.686 412.858L400.414 425.586C401.195 426.367 401.195 427.633 400.414 428.414L387.686 441.142C386.905 441.923 385.639 441.923 384.858 441.142C384.077 440.361 384.077 439.095 384.858 438.314L394.172 429H331V425H394.172L384.858 415.686C384.077 414.905 384.077 413.639 384.858 412.858C385.639 412.077 386.905 412.077 387.686 412.858Z" fill="#CCABD8"/>
<path fill-rule="evenodd" clip-rule="evenodd" d="M819.686 412.858L832.414 425.586C833.195 426.367 833.195 427.633 832.414 428.414L819.686 441.142C818.905 441.923 817.639 441.923 816.858 441.142C816.077 440.361 816.077 439.095 816.858 438.314L826.172 429H763V425H826.172L816.858 415.686C816.077 414.905 816.077 413.639 816.858 412.858C817.639 412.077 818.905 412.077 819.686 412.858Z" fill="#CCABD8"/>
<path fill-rule="evenodd" clip-rule="evenodd" d="M821.686 25.8579L834.414 38.5858C835.195 39.3669 835.195 40.6332 834.414 41.4142L821.686 54.1422C820.905 54.9232 819.639 54.9232 818.858 54.1422C818.077 53.3611 818.077 52.0948 818.858 51.3137L828.172 42H765V38H828.172L818.858 28.6863C818.077 27.9053 818.077 26.6389 818.858 25.8579C819.639 25.0768 820.905 25.0768 821.686 25.8579Z" fill="#CCABD8"/>
<path fill-rule="evenodd" clip-rule="evenodd" d="M774.314 234.142L761.586 221.414C760.805 220.633 760.805 219.367 761.586 218.586L774.314 205.858C775.095 205.077 776.361 205.077 777.142 205.858C777.923 206.639 777.923 207.905 777.142 208.686L767.828 218L831 218L831 222L767.828 222L777.142 231.314C777.923 232.095 777.923 233.361 777.142 234.142C776.361 234.923 775.095 234.923 774.314 234.142Z" fill="#CCABD8"/>
<path fill-rule="evenodd" clip-rule="evenodd" d="M343.314 234.142L330.586 221.414C329.805 220.633 329.805 219.367 330.586 218.586L343.314 205.858C344.095 205.077 345.361 205.077 346.142 205.858C346.923 206.639 346.923 207.905 346.142 208.686L336.828 218L400 218L400 222L336.828 222L346.142 231.314C346.923 232.095 346.923 233.361 346.142 234.142C345.361 234.923 344.095 234.923 343.314 234.142Z" fill="#CCABD8"/>
<path fill-rule="evenodd" clip-rule="evenodd" d="M1026.14 152.686L1013.41 165.414C1012.63 166.195 1011.37 166.195 1010.59 165.414L997.858 152.686C997.077 151.905 997.077 150.639 997.858 149.858C998.639 149.077 999.905 149.077 1000.69 149.858L1010 159.172L1010 96L1014 96L1014 159.172L1023.31 149.858C1024.09 149.077 1025.36 149.077 1026.14 149.858C1026.92 150.639 1026.92 151.905 1026.14 152.686Z" fill="#CCABD8"/>
<path fill-rule="evenodd" clip-rule="evenodd" d="M164.142 346.686L151.414 359.414C150.633 360.195 149.367 360.195 148.586 359.414L135.858 346.686C135.077 345.905 135.077 344.639 135.858 343.858C136.639 343.077 137.905 343.077 138.686 343.858L148 353.172L148 290L152 290L152 353.172L161.314 343.858C162.095 343.077 163.361 343.077 164.142 343.858C164.923 344.639 164.923 345.905 164.142 346.686Z" fill="#CCABD8"/>
<defs>
<filter id="filter0_d_440_69" x="0" y="0" width="304" height="84" filterUnits="userSpaceOnUse" color-interpolation-filters="sRGB">
<feFlood flood-opacity="0" result="BackgroundImageFix"/>
<feColorMatrix in="SourceAlpha" type="matrix" values="0 0 0 0 0 0 0 0 0 0 0 0 0 0 0 0 0 0 127 0" result="hardAlpha"/>
<feOffset dx="2" dy="2"/>
<feGaussianBlur stdDeviation="1"/>
<feComposite in2="hardAlpha" operator="out"/>
<feColorMatrix type="matrix" values="0 0 0 0 0 0 0 0 0 0 0 0 0 0 0 0 0 0 0.1 0"/>
<feBlend mode="normal" in2="BackgroundImageFix" result="effect1_dropShadow_440_69"/>
<feBlend mode="normal" in="SourceGraphic" in2="effect1_dropShadow_440_69" result="shape"/>
</filter>
<filter id="filter1_d_440_69" x="862" y="180" width="304" height="84" filterUnits="userSpaceOnUse" color-interpolation-filters="sRGB">
<feFlood flood-opacity="0" result="BackgroundImageFix"/>
<feColorMatrix in="SourceAlpha" type="matrix" values="0 0 0 0 0 0 0 0 0 0 0 0 0 0 0 0 0 0 127 0" result="hardAlpha"/>
<feOffset dx="2" dy="2"/>
<feGaussianBlur stdDeviation="1"/>
<feComposite in2="hardAlpha" operator="out"/>
<feColorMatrix type="matrix" values="0 0 0 0 0 0 0 0 0 0 0 0 0 0 0 0 0 0 0.1 0"/>
<feBlend mode="normal" in2="BackgroundImageFix" result="effect1_dropShadow_440_69"/>
<feBlend mode="normal" in="SourceGraphic" in2="effect1_dropShadow_440_69" result="shape"/>
</filter>
<filter id="filter2_d_440_69" x="431" y="180" width="304" height="84" filterUnits="userSpaceOnUse" color-interpolation-filters="sRGB">
<feFlood flood-opacity="0" result="BackgroundImageFix"/>
<feColorMatrix in="SourceAlpha" type="matrix" values="0 0 0 0 0 0 0 0 0 0 0 0 0 0 0 0 0 0 127 0" result="hardAlpha"/>
<feOffset dx="2" dy="2"/>
<feGaussianBlur stdDeviation="1"/>
<feComposite in2="hardAlpha" operator="out"/>
<feColorMatrix type="matrix" values="0 0 0 0 0 0 0 0 0 0 0 0 0 0 0 0 0 0 0.1 0"/>
<feBlend mode="normal" in2="BackgroundImageFix" result="effect1_dropShadow_440_69"/>
<feBlend mode="normal" in="SourceGraphic" in2="effect1_dropShadow_440_69" result="shape"/>
</filter>
<filter id="filter3_d_440_69" x="0" y="180" width="307.019" height="84" filterUnits="userSpaceOnUse" color-interpolation-filters="sRGB">
<feFlood flood-opacity="0" result="BackgroundImageFix"/>
<feColorMatrix in="SourceAlpha" type="matrix" values="0 0 0 0 0 0 0 0 0 0 0 0 0 0 0 0 0 0 127 0" result="hardAlpha"/>
<feOffset dx="2" dy="2"/>
<feGaussianBlur stdDeviation="1"/>
<feComposite in2="hardAlpha" operator="out"/>
<feColorMatrix type="matrix" values="0 0 0 0 0 0 0 0 0 0 0 0 0 0 0 0 0 0 0.1 0"/>
<feBlend mode="normal" in2="BackgroundImageFix" result="effect1_dropShadow_440_69"/>
<feBlend mode="normal" in="SourceGraphic" in2="effect1_dropShadow_440_69" result="shape"/>
</filter>
<filter id="filter4_d_440_69" x="431" y="0" width="304" height="84" filterUnits="userSpaceOnUse" color-interpolation-filters="sRGB">
<feFlood flood-opacity="0" result="BackgroundImageFix"/>
<feColorMatrix in="SourceAlpha" type="matrix" values="0 0 0 0 0 0 0 0 0 0 0 0 0 0 0 0 0 0 127 0" result="hardAlpha"/>
<feOffset dx="2" dy="2"/>
<feGaussianBlur stdDeviation="1"/>
<feComposite in2="hardAlpha" operator="out"/>
<feColorMatrix type="matrix" values="0 0 0 0 0 0 0 0 0 0 0 0 0 0 0 0 0 0 0.1 0"/>
<feBlend mode="normal" in2="BackgroundImageFix" result="effect1_dropShadow_440_69"/>
<feBlend mode="normal" in="SourceGraphic" in2="effect1_dropShadow_440_69" result="shape"/>
</filter>
<filter id="filter5_d_440_69" x="862" y="0" width="304" height="84" filterUnits="userSpaceOnUse" color-interpolation-filters="sRGB">
<feFlood flood-opacity="0" result="BackgroundImageFix"/>
<feColorMatrix in="SourceAlpha" type="matrix" values="0 0 0 0 0 0 0 0 0 0 0 0 0 0 0 0 0 0 127 0" result="hardAlpha"/>
<feOffset dx="2" dy="2"/>
<feGaussianBlur stdDeviation="1"/>
<feComposite in2="hardAlpha" operator="out"/>
<feColorMatrix type="matrix" values="0 0 0 0 0 0 0 0 0 0 0 0 0 0 0 0 0 0 0.1 0"/>
<feBlend mode="normal" in2="BackgroundImageFix" result="effect1_dropShadow_440_69"/>
<feBlend mode="normal" in="SourceGraphic" in2="effect1_dropShadow_440_69" result="shape"/>
</filter>
<filter id="filter6_d_440_69" x="0" y="387" width="304" height="84" filterUnits="userSpaceOnUse" color-interpolation-filters="sRGB">
<feFlood flood-opacity="0" result="BackgroundImageFix"/>
<feColorMatrix in="SourceAlpha" type="matrix" values="0 0 0 0 0 0 0 0 0 0 0 0 0 0 0 0 0 0 127 0" result="hardAlpha"/>
<feOffset dx="2" dy="2"/>
<feGaussianBlur stdDeviation="1"/>
<feComposite in2="hardAlpha" operator="out"/>
<feColorMatrix type="matrix" values="0 0 0 0 0 0 0 0 0 0 0 0 0 0 0 0 0 0 0.1 0"/>
<feBlend mode="normal" in2="BackgroundImageFix" result="effect1_dropShadow_440_69"/>
<feBlend mode="normal" in="SourceGraphic" in2="effect1_dropShadow_440_69" result="shape"/>
</filter>
<filter id="filter7_d_440_69" x="431" y="387" width="304" height="84" filterUnits="userSpaceOnUse" color-interpolation-filters="sRGB">
<feFlood flood-opacity="0" result="BackgroundImageFix"/>
<feColorMatrix in="SourceAlpha" type="matrix" values="0 0 0 0 0 0 0 0 0 0 0 0 0 0 0 0 0 0 127 0" result="hardAlpha"/>
<feOffset dx="2" dy="2"/>
<feGaussianBlur stdDeviation="1"/>
<feComposite in2="hardAlpha" operator="out"/>
<feColorMatrix type="matrix" values="0 0 0 0 0 0 0 0 0 0 0 0 0 0 0 0 0 0 0.1 0"/>
<feBlend mode="normal" in2="BackgroundImageFix" result="effect1_dropShadow_440_69"/>
<feBlend mode="normal" in="SourceGraphic" in2="effect1_dropShadow_440_69" result="shape"/>
</filter>
<filter id="filter8_d_440_69" x="862" y="387" width="304" height="84" filterUnits="userSpaceOnUse" color-interpolation-filters="sRGB">
<feFlood flood-opacity="0" result="BackgroundImageFix"/>
<feColorMatrix in="SourceAlpha" type="matrix" values="0 0 0 0 0 0 0 0 0 0 0 0 0 0 0 0 0 0 127 0" result="hardAlpha"/>
<feOffset dx="2" dy="2"/>
<feGaussianBlur stdDeviation="1"/>
<feComposite in2="hardAlpha" operator="out"/>
<feColorMatrix type="matrix" values="0 0 0 0 0 0 0 0 0 0 0 0 0 0 0 0 0 0 0.1 0"/>
<feBlend mode="normal" in2="BackgroundImageFix" result="effect1_dropShadow_440_69"/>
<feBlend mode="normal" in="SourceGraphic" in2="effect1_dropShadow_440_69" result="shape"/>
</filter>
</defs>
</svg>
