<svg width="40" height="40" viewBox="0 0 40 40" fill="none" xmlns="http://www.w3.org/2000/svg">
<path d="M24.6667 10.5C23.5 10.5 23 10.5 20 10.5C17 10.5 16.5 10.5 15.3333 10.5C12.1667 10.6667 10.6667 12.1667 10.5 15.3333C10.5 16.5 10.5 17 10.5 20C10.5 23 10.5 23.5 10.5 24.6667C10.6667 27.8333 12.1667 29.3333 15.3333 29.5C16.5 29.5 17 29.5 20 29.5C23.1667 29.5 23.5 29.5 24.6667 29.5C27.8333 29.3333 29.3333 27.8333 29.5 24.6667C29.5 23.5 29.5 23 29.5 20C29.5 17 29.5 16.5 29.5 15.3333C29.3333 12.1667 27.8333 10.6667 24.6667 10.5ZM20 26C16.6667 26 14 23.3333 14 20C14 16.6667 16.6667 14 20 14C23.3333 14 26 16.6667 26 20C26 23.3333 23.3333 26 20 26ZM26.1667 15.1667C25.3333 15.1667 24.8333 14.5 24.8333 13.8333C24.8333 13.1667 25.5 12.5 26.1667 12.5C27 12.5 27.5 13.1667 27.5 13.8333C27.6667 14.5 27 15.1667 26.1667 15.1667ZM23.8333 20C23.8333 22.1667 22.1667 23.8333 20 23.8333C17.8333 23.8333 16.1667 22.1667 16.1667 20C16.1667 17.8333 17.8333 16.1667 20 16.1667C22.1667 16.1667 23.8333 17.8333 23.8333 20ZM20 0C9 0 0 9 0 20C0 31 9 40 20 40C31 40 40 31 40 20C40 9 31 0 20 0ZM31.6667 24.8333C31.5 29 29.1667 31.5 24.8333 31.6667C23.6667 31.6667 23.1667 31.6667 20 31.6667C16.8333 31.6667 16.5 31.6667 15.1667 31.6667C11 31.5 8.5 29.1667 8.33333 24.8333C8.33333 23.6667 8.33333 23.1667 8.33333 20C8.33333 16.8333 8.33333 16.5 8.33333 15.1667C8.5 11 10.8333 8.5 15.1667 8.33333C16.3333 8.33333 16.8333 8.33333 20 8.33333C23.1667 8.33333 23.5 8.33333 24.8333 8.33333C29 8.5 31.5 10.8333 31.6667 15.1667C31.6667 16.3333 31.6667 16.8333 31.6667 20C31.6667 23.1667 31.6667 23.5 31.6667 24.8333Z" fill="white"/>
</svg>
