<svg width="418" height="203" viewBox="0 0 418 203" fill="none" xmlns="http://www.w3.org/2000/svg">
<path d="M0.312988 147.318C2.05042 145.193 3.20543 136.884 3.20543 105.801V50.7162H5.13536C9.95774 54.003 15.7475 58.6242 21.9174 58.6242C31.1772 58.6242 34.0696 48.7738 52.2041 48.7738C69.7562 48.7738 84.9982 59.588 84.9982 80.4504C84.9982 125.067 63.9713 187.456 131.889 187.456C170.468 187.456 186.095 155.201 223.129 155.201C244.734 155.201 254.379 168.917 254.379 181.471C254.379 194.815 245.701 202.723 233.737 202.723C230.053 202.705 226.399 202.051 222.937 200.791C228.144 185.726 228.722 173.558 204.995 173.558C184.758 173.558 158.104 191.133 127.259 191.133C42.1892 191.133 59.9387 139.365 59.9387 75.241C59.9387 57.8532 52.8013 51.8678 45.279 51.8678C36.9818 51.8678 28.3045 59.0147 28.3045 65.7761V105.756C28.3045 136.854 29.4595 145.163 31.1969 147.273C26.952 145.341 21.3597 144.57 16.1523 144.57C9.97748 144.57 4.00011 145.726 0.717736 147.273L0.312988 147.318Z" fill="white"/>
<path d="M153.084 72.3694C153.084 57.1119 145.562 50.736 137.847 50.736C129.357 50.736 120.482 58.4661 120.482 70.0514C120.482 76.8128 124.535 82.0271 131.48 81.2561C131.48 90.721 124.727 95.1643 117.398 95.1643C108.513 95.1643 99.0705 88.9812 99.0705 77.3713C99.0705 57.1069 122.22 48.7887 139.002 48.7887C172.181 48.7887 177.996 70.4221 177.996 88.1905V122.763C177.996 135.515 179.151 143.818 184.165 143.818C185.829 143.785 187.443 143.247 188.795 142.276V143.265C185.128 147.515 179.728 149.255 174.136 149.255C161.598 149.255 156.391 142.494 154.461 133.607C145.971 144.421 134.787 149.255 124.752 149.255C110.862 149.255 97.5552 140.359 97.5552 125.299C97.5305 92.268 153.084 100.764 153.084 72.3694ZM139.757 137.66C144.767 137.66 149.787 135.728 154.027 131.477C152.872 125.877 152.872 119.694 152.872 113.709L153.064 80.8706C150.364 90.721 122.2 99.6077 122.2 118.73C122.22 130.706 130.517 137.66 139.792 137.66H139.757Z" fill="white"/>
<path d="M223.297 27.175H225.222V50.7163H238.342V52.6933H225.222V122.783C225.222 135.535 226.209 143.838 231.204 143.838C232.868 143.804 234.482 143.267 235.834 142.296V143.285C232.167 147.535 226.767 149.275 221.175 149.275C199.95 149.275 200.148 130.152 200.148 113.733V62.9095C200.148 53.8301 198.795 52.6686 186.821 52.6686V50.7163C194.55 50.7163 210.755 44.9434 223.297 27.175Z" fill="white"/>
<path d="M248.382 105.786V82.4176C248.382 67.5407 245.869 64.4516 245.484 62.9095C248.767 62.9095 260.144 60.7842 271.526 50.7361H273.456V105.786C273.456 136.884 274.611 145.193 276.348 147.303C272.103 145.37 266.511 144.599 261.304 144.599C255.129 144.599 249.151 145.756 245.869 147.303H245.484C247.227 145.193 248.382 136.884 248.382 105.786Z" fill="white"/>
<path d="M340.89 147.318L341.093 146.058C341.114 145.919 341.145 145.782 341.186 145.647C347.406 124.889 352.169 108.267 356.423 95.1347C363.067 74.475 372.509 50.8349 384.227 42.0817C389.825 37.7026 399.089 39.8032 401.888 39.8032C423.048 40.3271 423.749 13.1877 401.715 13.1877C386.676 13.1877 373.21 32.9578 366.567 44.5332C356.201 63.038 347.914 94.2994 344.138 110.15C343.983 110.803 343.624 111.389 343.114 111.823C342.603 112.258 341.968 112.518 341.299 112.566C340.631 112.614 339.965 112.447 339.398 112.09C338.831 111.733 338.392 111.204 338.146 110.58L338.062 110.368L330.574 91.2697C322.119 68.9295 317.459 57.8681 315.86 52.6241C315.73 52.2009 315.512 51.81 315.22 51.4773C314.928 51.1446 314.569 50.8774 314.167 50.6935C313.764 50.5096 313.328 50.413 312.885 50.4101C312.443 50.4072 312.005 50.4981 311.6 50.6768C308.333 52.1299 304.281 53.4396 300.381 53.4396C293.821 53.4396 287.054 52.2831 283.214 50.7361H282.829C284.132 51.8432 285.514 54.8186 288.491 62.005L288.574 62.2175L301.008 93.7162L321.793 147.303H340.89" fill="white"/>
<path d="M269.053 15.2043C271.94 18.2785 283.505 23.1617 283.505 23.1617C283.505 23.1617 271.94 28.2278 269.053 31.302C265.983 34.1984 260.924 45.7737 260.924 45.7737C260.924 45.7737 255.864 34.1984 252.972 31.302C250.084 28.2278 238.342 23.1617 238.342 23.1617C238.342 23.1617 250.084 18.2785 252.972 15.2043C255.864 12.3079 260.924 0.549683 260.924 0.549683C260.924 0.549683 265.983 12.3079 269.053 15.2043Z" fill="white"/>
</svg>
