<svg width="40" height="40" viewBox="0 0 40 40" fill="none" xmlns="http://www.w3.org/2000/svg">
<path d="M20.0517 10.2867C14.75 10.2867 10.44 14.5967 10.4383 19.8967C10.4367 22.06 11.0717 23.68 12.1367 25.375L11.1667 28.9217L14.8033 27.9667C16.4333 28.9333 17.9883 29.5133 20.045 29.515C25.3417 29.515 29.6567 25.2033 29.6583 19.905C29.66 14.5933 25.3667 10.2883 20.0517 10.2867ZM25.705 24.0267C25.465 24.7017 24.31 25.3167 23.755 25.4C23.2567 25.475 22.6267 25.505 21.935 25.285C21.515 25.1517 20.9767 24.9733 20.2883 24.6767C17.39 23.425 15.4983 20.5067 15.3533 20.315C15.2083 20.1217 14.1733 18.7483 14.1733 17.3267C14.1733 15.905 14.92 15.205 15.185 14.9167C15.45 14.6283 15.7617 14.555 15.955 14.555L16.5083 14.565C16.685 14.5733 16.9233 14.4983 17.1583 15.0617C17.3983 15.64 17.9767 17.0617 18.0483 17.2067C18.12 17.3517 18.1683 17.52 18.0717 17.7133C17.975 17.9067 17.9267 18.0267 17.7833 18.195L17.35 18.7017C17.205 18.845 17.055 19.0017 17.2233 19.2917C17.3917 19.5817 17.9717 20.5267 18.83 21.2933C19.9333 22.2783 20.865 22.5833 21.1533 22.7267C21.4417 22.87 21.61 22.8467 21.78 22.655C21.9483 22.4617 22.5017 21.8117 22.695 21.5217C22.8883 21.2333 23.08 21.28 23.345 21.3767C23.61 21.4733 25.03 22.1717 25.3183 22.3167C25.6067 22.4617 25.8 22.5333 25.8717 22.6533C25.9467 22.7733 25.9467 23.3517 25.705 24.0267ZM20 0C8.955 0 0 8.955 0 20C0 31.045 8.955 40 20 40C31.045 40 40 31.045 40 20C40 8.955 31.045 0 20 0ZM20.0483 31.4667C18.1133 31.4667 16.2067 30.98 14.5183 30.06L8.39 31.6667L10.03 25.675C9.01833 23.9217 8.485 21.9317 8.48667 19.895C8.48833 13.52 13.675 8.33333 20.0483 8.33333C23.1417 8.335 26.045 9.53833 28.2267 11.7233C30.41 13.9083 31.6117 16.8133 31.61 19.9033C31.6083 26.2783 26.4217 31.4667 20.0483 31.4667Z" fill="white"/>
</svg>
